<svg width="1440" height="360" viewBox="0 0 1440 360" fill="none" xmlns="http://www.w3.org/2000/svg">
<path d="M202.049 -96.8123C208.38 -154.538 250.059 -211.803 322.776 -262.421C325.104 -264.078 327.479 -265.706 329.9 -267.304C402.095 -315.713 500.751 -357.92 621.073 -391.875L624.18 -390.632C500.195 -355.641 399.353 -311.86 326.898 -261.564C254.656 -211.369 213.773 -155.276 206.62 -96.5389C199.108 -27.8799 246.136 36.8281 337.606 86.7755C352.466 85.8892 367.384 85.0319 382.36 84.2036C298.216 32.9764 258.737 -31.7688 273.745 -100.415C300.792 -218.933 460.811 -322.964 720.054 -390.57L723.182 -389.178C466.212 -322.669 304.123 -217.295 278.449 -100.068C263.485 -31.5825 302.965 32.9764 387.045 83.9426C530.314 76.0405 676.923 71.3937 824.345 84.7254C903.107 91.8876 979.321 103.951 1049.15 120.31C1061.51 122.853 1073.69 125.524 1085.7 128.324C1097.89 130.809 1109.9 133.439 1121.71 136.213C1134.08 138.698 1146.31 141.382 1158.27 144.165C1170.65 146.65 1182.81 149.284 1194.74 152.067C1207.42 154.602 1219.8 157.261 1231.87 160.044C1244.39 162.529 1256.66 165.146 1268.68 167.897C1281.34 170.381 1293.81 173.007 1306.09 175.774L1306.59 175.898C1316.27 177.774 1325.84 179.725 1335.19 181.762C1337.98 182.359 1340.72 183.005 1343.48 183.614C1350.5 184.956 1357.45 186.322 1364.32 187.739C1370.15 188.956 1375.98 190.199 1381.8 191.466C1385.59 192.187 1389.57 192.932 1393.4 193.69C1402.6 195.492 1411.84 197.418 1421.03 199.406L1422.5 199.667C1435.25 202.027 1448.05 204.636 1460.76 207.283C1474.33 209.768 1487.89 212.327 1501.35 215.086C1512.65 217.074 1523.99 219.148 1535.35 221.298L1542.2 222.665C1549.1 223.808 1556.02 224.976 1562.84 226.181C1569.66 227.386 1577.04 228.765 1584.13 230.12C1586.19 230.443 1588.27 230.741 1590.29 231.064C1601.96 232.919 1613.62 234.911 1625.26 237.04C1639.39 239.078 1653.44 241.285 1667.4 243.662C1756.07 255.478 1840.29 273.569 1906.62 295.138C1986.82 321.23 2038.95 351.571 2057.35 382.882L2052.69 383.006C2034.5 352.081 1982.94 322.125 1903.61 296.294C1849.74 278.762 1783.92 263.554 1713.53 252.173C1765.9 262.614 1815.29 275.083 1860.62 289.311C1953.84 318.559 2021.9 353.087 2052.33 386.534L2048.15 386.907C2018.04 353.758 1950.48 319.528 1857.98 290.516C1801.14 272.674 1737.94 257.645 1670.55 245.949C1730.43 258.635 1786.58 273.657 1837.75 290.678C1929.7 321.056 2006.14 357.361 2047.45 390.274L2043.5 390.722C2002.45 358.02 1926.45 321.938 1835.01 291.709C1777.9 272.69 1714.51 256.214 1646.66 242.755L1644.29 242.457L1640.95 242.072C1703.31 256.55 1761.63 273.292 1814.74 291.97C1904.46 323.032 1987.41 360.219 2042.37 393.964L2038.86 394.548C1984.1 360.939 1901.43 323.963 1812.14 292.902C1751.19 271.78 1688.95 254.137 1626.41 240.37C1622.99 239.985 1619.57 239.575 1616.16 239.202C1673.56 253.54 1731.63 271.394 1791.83 293.237C1901.25 332.797 1992.67 375.625 2037.41 397.605L2034.16 398.301C1989.48 376.396 1898.23 333.642 1789.01 294.144C1725.83 271.233 1665.06 252.72 1604.9 238.096C1600.7 237.661 1596.51 237.202 1592.28 236.792C1648.11 251.912 1705.69 270.798 1768.62 294.554C1833.03 318.782 1897.15 345.496 1953.69 368.991C1981.57 380.595 2007.94 391.554 2032.19 401.37L2029.53 402.14C2005.23 392.299 1978.87 381.366 1950.99 369.761C1894.44 346.241 1830.38 319.578 1766.05 295.387C1700.81 270.736 1641.28 251.341 1583.56 235.972C1578.85 235.524 1574.15 235.089 1569.42 234.667C1635.76 254.025 1694.52 275.867 1745.58 295.859C1776.85 308.06 1808.63 320.845 1839.33 333.207C1906.32 360.182 1969.62 385.652 2027.16 405.097L2024.91 405.929C1967.07 386.435 1903.86 360.939 1836.81 333.903C1806.09 321.479 1774.34 308.756 1743.07 296.567C1690.76 276.066 1630.29 253.627 1561.9 233.946C1556.88 233.511 1551.87 233.101 1546.87 232.704C1612.41 253.205 1670.72 276.19 1722.45 297.114C1735.15 302.233 1747.91 307.401 1760.74 312.62C1848.41 348.217 1939.07 385.031 2022.2 408.812L2020.34 409.669C1937.08 385.814 1846.15 348.95 1758.5 313.303C1745.7 308.101 1732.95 302.933 1720.25 297.797C1667.39 276.402 1607.71 252.956 1540.69 232.182C1535.36 231.747 1530 231.35 1524.68 230.94C1584.72 250.956 1640.63 273.718 1699.65 298.393C1798.83 339.706 1911.28 386.534 2017.14 412.552L2015.6 413.409C1909.22 387.317 1796.6 340.401 1697.25 299.015C1637.22 273.917 1580.54 250.794 1519.18 230.542C1513.43 230.12 1507.72 229.71 1501.97 229.299C1563.32 251.018 1619.46 275.134 1674.36 298.754L1676.46 299.661C1870.01 382.683 1951.31 403.395 2012.15 416.292L2010.89 417.136C1958.05 405.967 1901.33 389.33 1837.76 366.208C1780.69 345.496 1725.53 322.299 1674.29 300.356L1672.19 299.449C1616.54 275.507 1559.58 250.993 1497.3 229.126C1491.41 228.728 1485.53 228.33 1479.66 227.97C1535.11 248.583 1585.84 271.158 1635.88 293.262L1653.32 300.99C1838.99 382.795 1936.12 407.11 2007.12 420.106L2006.11 420.876C1948.13 410.241 1887.44 393.542 1820.7 369.935C1756.87 347.334 1696.66 321.479 1651.33 301.5L1633.85 293.771C1583.19 271.407 1531.78 248.521 1475.63 227.647C1469.55 227.274 1463.47 226.914 1457.39 226.578C1507.85 246.458 1554.5 267.692 1600.41 288.59C1610.41 293.146 1620.41 297.702 1630.41 302.257C1729.37 346.986 1861.08 401.307 2002.31 423.858L2001.55 424.641C1938.44 414.552 1873.79 397.903 1803.83 373.7C1750.67 355.323 1694.98 332.773 1628.54 302.717C1618.53 298.17 1608.53 293.614 1598.55 289.05C1552.26 267.928 1505.04 246.371 1453.94 226.367C1447.76 226.019 1441.55 225.709 1435.35 225.386C1481.59 244.445 1524.62 264.673 1566.74 284.54C1579.99 290.752 1593.69 297.238 1607.29 303.537C1800.22 392.995 1922.27 417.186 1997.3 427.635L1996.61 428.331C1928.44 418.826 1859.78 402.239 1786.61 377.464C1729.87 358.268 1672.29 334.91 1605.43 303.922C1591.86 297.611 1578.14 291.162 1564.87 284.913C1522.12 264.847 1478.8 244.408 1432.04 225.187C1425.65 224.864 1419.24 224.553 1412.87 224.255C1455.51 242.631 1495.37 261.927 1534.48 280.899C1550.67 288.752 1567.42 296.878 1584.09 304.78C1677.8 349.211 1822.06 410.688 1992.24 431.375L1991.83 432.046C1821.03 411.322 1676.45 349.732 1582.53 305.202C1565.85 297.288 1549.11 289.174 1532.91 281.309C1493.43 262.175 1453.21 242.693 1410.12 224.156C1403.61 223.857 1397.09 223.559 1390.59 223.286C1430.07 241.016 1467.13 259.504 1503.53 277.669C1522.3 287.025 1541.67 296.691 1561.02 306.084C1628.27 338.662 1691.29 364.344 1753.68 384.609C1831.94 410.017 1910.58 427.039 1987.35 435.177L1987.05 435.786C1910.09 427.611 1831.05 410.539 1752.54 385.043C1690.04 364.754 1626.94 339.072 1559.59 306.407C1540.21 297.014 1520.73 287.348 1502.11 277.992C1465.44 259.703 1428.05 241.066 1388.34 223.211L1368.3 222.391C1404.99 239.525 1439.58 257.255 1473.61 274.724C1494.6 285.484 1516.29 296.617 1538.05 307.389C1689.46 382.298 1834.99 425.349 1982.56 438.992L1982.23 439.513C1834.23 425.846 1688.49 382.72 1536.68 307.675C1515.02 296.89 1493.22 285.757 1472.21 274.998C1437.95 257.417 1403.1 239.562 1366.13 222.317C1359.34 222.056 1352.6 221.795 1345.83 221.559C1379.98 238.121 1412.28 255.106 1444.14 271.941C1467.15 284.055 1490.91 296.579 1514.86 308.669C1583.89 343.458 1650.89 370.792 1719.29 392.275C1804.03 418.826 1890.93 435.823 1977.55 442.769L1977.41 443.241C1890.36 436.271 1803.41 419.236 1718.43 392.61C1649.81 371.115 1582.87 343.731 1513.75 308.892C1489.76 296.803 1466 284.279 1442.99 272.152C1410.97 255.267 1378.43 238.133 1344.04 221.484L1323.33 220.776C1355.19 236.767 1385.45 253.08 1415.55 269.332C1440.34 282.738 1465.97 296.666 1491.91 309.924C1561.76 345.856 1630.73 374.048 1702.23 396.089C1790.12 423.237 1881.16 440.209 1972.69 446.558L1972.6 446.968C1880.85 440.607 1789.58 423.585 1701.4 396.4C1629.74 374.321 1560.91 346.117 1490.83 310.147C1464.87 296.815 1439.23 282.949 1414.43 269.543C1384.36 253.267 1353.95 236.816 1321.88 220.739C1283.14 219.496 1244.48 218.453 1206.21 217.446C1162.87 216.303 1118.07 215.123 1074.16 213.607C992.974 210.799 892.541 205.929 791.235 194.746C765.729 192.593 741.197 190.191 717.637 187.54C697.711 185.817 678.34 183.92 659.525 181.849C634.176 179.737 609.674 177.356 586.02 174.705C566.174 173.007 546.821 171.127 527.962 169.064C505.316 167.217 483.288 165.146 461.88 162.852C438.638 160.98 416.002 158.851 393.973 156.466C372.211 154.726 351.08 152.763 330.58 150.576C307.099 148.754 284.216 146.683 261.93 144.364C238.966 142.608 216.55 140.595 194.682 138.326C171.657 136.594 149.123 134.611 127.08 132.374C103.783 130.668 80.9639 128.705 58.6221 126.485C34.8751 124.828 11.6167 122.882 -11.1535 120.645C-34.8301 118.989 -58.0285 117.108 -80.7485 115.004C-104.247 113.447 -127.3 111.641 -149.907 109.587C-174.449 108.063 -198.58 106.257 -222.302 104.17C-246.695 102.729 -270.649 101.051 -294.148 99.0884C-348.044 96.1206 -401.752 91.7047 -454.784 85.8809C-551.438 75.2047 -644.308 58.991 -729.348 37.9463C-817.689 15.8303 -889.983 -10.1747 -944.215 -39.4846C-994.886 -66.819 -1031.6 -98.0796 -1053.13 -132.26C-1072.87 -163.086 -1080.06 -195.9 -1074.56 -229.657C-1064.12 -293.744 -1012.05 -354.427 -961.726 -413.096L-960.575 -412.935C-1010.87 -354.277 -1062.93 -293.657 -1073.36 -229.571C-1078.85 -195.862 -1071.71 -163.086 -1052.12 -132.297C-1030.47 -98.1666 -993.831 -67.0054 -943.27 -39.6834C-889.092 -10.4232 -816.868 15.5818 -728.736 37.6108C-643.772 58.6123 -550.987 74.7804 -454.434 85.4087C-406.096 90.7169 -357.188 94.8483 -308.082 97.7713C-313.542 97.2868 -318.992 96.827 -324.465 96.3052C-350.307 93.8203 -376.015 91.0371 -400.891 87.9434C-600.501 63.0939 -772.423 15.3581 -872.465 -43.0381C-919.739 -70.5961 -953.327 -101.683 -972.337 -135.428C-989.891 -167.715 -994.862 -200.109 -987.109 -231.695C-973.284 -292.676 -922.718 -349.32 -862.802 -411.754L-861.496 -411.555C-921.346 -349.134 -972.027 -292.514 -985.835 -231.583C-993.567 -200.046 -988.591 -167.702 -971.049 -135.466C-952.098 -101.782 -918.463 -70.7576 -871.384 -43.2492C-771.459 15.0227 -599.847 62.6839 -400.538 87.4837C-375.661 90.5775 -349.979 93.3855 -324.186 95.8331C-313.239 96.8768 -302.326 97.8335 -291.074 98.7529C-281.905 99.2499 -272.712 99.7179 -263.495 100.157L-271.287 99.3617C-296.942 96.6283 -322.43 93.4972 -347.077 90.0805C-540.489 63.2928 -705.878 13.482 -800.857 -46.5916C-844.679 -74.3235 -875.19 -105.273 -891.484 -138.534C-906.602 -170.542 -909.404 -202.546 -899.814 -233.671C-881.575 -296.092 -822.612 -355.184 -763.824 -410.363L-762.318 -410.102C-821.179 -355.023 -880.109 -296.03 -898.203 -233.596C-907.79 -202.525 -904.985 -170.574 -889.864 -138.621C-873.574 -105.373 -843.157 -74.485 -799.433 -46.8276C-704.678 13.1217 -539.643 62.833 -346.641 89.5586C-322.029 92.9754 -296.581 96.094 -270.962 98.8274C-265.099 99.4487 -259.166 100.07 -253.261 100.617C-243.273 101.047 -233.233 101.461 -223.14 101.859C-246.846 98.9765 -270.428 95.771 -293.278 92.2672C-480.712 63.6158 -639.573 11.7177 -729.168 -50.1202C-769.569 -78.0136 -797.069 -108.815 -810.584 -141.703C-823.301 -173.432 -823.938 -205.053 -812.477 -235.721C-789.516 -299.609 -724.301 -358.725 -664.904 -409.033L-663.209 -408.735C-722.526 -358.402 -787.748 -299.398 -810.658 -235.559C-822.092 -204.947 -821.466 -173.386 -808.795 -141.715C-795.167 -108.902 -767.831 -78.1627 -727.569 -50.3562C-638.331 11.2829 -479.838 63.0442 -292.889 91.6211C-268.477 95.3485 -243.223 98.7902 -217.883 101.809L-215.789 102.045C-205.082 102.393 -194.332 102.7 -183.538 102.965C-202.552 100.306 -221.369 97.4234 -239.557 94.3421C-422.08 63.6143 -572.179 10.4494 -657.658 -53.7482C-694.593 -81.7783 -718.77 -112.443 -729.905 -144.896C-740.155 -176.349 -738.593 -207.589 -725.26 -237.808C-698.593 -300.081 -629.87 -358.663 -566.144 -407.753L-564.249 -407.393C-627.954 -358.34 -696.607 -299.758 -723.26 -237.634C-736.566 -207.472 -738.115 -176.29 -727.865 -144.896C-716.934 -112.517 -692.68 -81.9275 -655.808 -53.9718C-570.614 10.043 -420.988 63.0641 -239.018 93.7209C-218.848 97.1128 -198.069 100.256 -177.111 103.126L-163.391 103.412C-156.836 103.536 -150.256 103.636 -143.611 103.723C-157.946 101.437 -172.118 99.0263 -185.949 96.4916C-275.129 80.1628 -356.287 58.0769 -424.55 31.56C-492.947 5.11438 -547.771 -25.0611 -586.019 -57.3141C-650.964 -111.908 -669.442 -176.741 -637.919 -239.846C-606.121 -303.622 -530.003 -362.366 -467.224 -406.424L-465.201 -406.002C-527.892 -361.993 -603.959 -303.299 -635.724 -239.622C-667.158 -176.654 -648.741 -111.983 -583.958 -57.5377C-545.844 -25.3769 -491.183 4.71122 -422.974 31.0754C-354.931 57.5132 -274.024 79.5319 -185.117 95.8082C-169.735 98.6286 -153.958 101.288 -138.03 103.785C-126.617 103.922 -115.153 104.009 -103.566 104.046C-113.233 102.294 -122.812 100.492 -132.244 98.6162C-220.073 81.1227 -298.892 57.8508 -363.689 30.2803C-428.7 2.73917 -479.771 -28.1986 -514.213 -60.9049C-572.839 -115.996 -585.729 -180.282 -550.481 -241.908C-533.816 -271.069 -499.438 -317.214 -393.562 -388.433C-385.542 -393.834 -377.09 -399.392 -368.204 -405.107L-366.016 -404.622C-426.264 -365.969 -510.683 -307.039 -548.092 -241.635C-583.255 -180.157 -570.43 -116.046 -511.967 -61.1036C-477.591 -28.5015 -426.642 2.33504 -361.802 29.7833C-297.245 57.235 -218.742 80.4085 -131.274 97.8335C-120.507 99.983 -109.532 102.033 -98.4659 104.046C-86.7412 104.046 -74.9439 104.021 -63.0737 103.971C-68.2611 102.903 -73.4133 101.834 -78.5397 100.741C-165.043 82.0699 -241.521 57.6191 -302.855 29.0253C-364.563 0.403697 -411.984 -31.3007 -442.719 -64.4832C-494.941 -120.034 -502.203 -183.761 -463.281 -243.946C-438.303 -282.574 -396.424 -321.339 -333.628 -363.584C-314.257 -376.613 -292.901 -390.007 -269.561 -403.765L-267.205 -403.206C-366.669 -344.81 -428.189 -294.067 -460.837 -243.623C-499.645 -183.599 -492.373 -120.034 -440.377 -64.7068C-409.731 -31.6403 -362.471 -0.0463366 -300.986 28.4787C-239.874 56.9576 -163.686 81.3104 -77.5175 99.9084C-71.2373 101.263 -64.8259 102.592 -58.4285 103.884C-46.4318 103.797 -34.3132 103.661 -22.1477 103.462C-23.1116 103.238 -24.066 103.039 -24.9946 102.816C-189.233 64.8955 -312.238 4.18833 -371.28 -68.1112C-417.024 -124.022 -418.722 -187.264 -376.174 -246.046C-352.287 -278.996 -315.332 -312.269 -264.142 -346.686C-237.025 -364.909 -205.878 -383.513 -170.7 -402.498L-168.215 -401.877C-269.815 -347.084 -336.936 -295.993 -373.364 -245.685C-415.833 -187.065 -414.084 -124.06 -368.527 -68.2726C-309.645 3.79074 -187.195 64.237 -23.6701 101.946C-21.6626 102.418 -19.5942 102.866 -17.5563 103.325C-5.29696 103.126 7.04595 102.87 19.4725 102.555C-135.858 62.7957 -249.022 1.04486 -299.633 -71.7516C-339.411 -128.905 -335.646 -189.886 -288.905 -248.183C-264.724 -277.732 -232.321 -306.047 -192.12 -332.758C-156.206 -356.547 -115.955 -379.37 -71.5817 -401.106L-68.962 -400.41C-173.987 -348.351 -244.973 -298.366 -285.584 -247.586C-332.295 -189.488 -336.05 -128.669 -296.524 -71.7144C-245.751 1.23122 -132.01 63.0194 24.0944 102.592C36.635 102.269 49.2225 101.884 61.9014 101.462C-83.4261 59.8759 -185.942 -2.45894 -227.877 -75.1933C-260.969 -132.62 -251.806 -193.091 -201.357 -250.046C-179.276 -274.678 -151.218 -298.368 -117.46 -320.88C-75.5903 -348.731 -27.1588 -375.113 27.4035 -399.789L30.1215 -399.019C-76.6839 -350.277 -153.441 -300.019 -198.098 -249.612C-248.401 -192.831 -257.569 -132.558 -224.542 -75.3051C-182.565 -2.45894 -79.6179 59.9008 66.3333 101.275C79.1437 100.828 92.0102 100.343 104.919 99.7842C-30.7363 56.5213 -122.887 -6.31058 -156.015 -78.8213C-182.654 -136.484 -168.013 -196.421 -113.788 -252.134C-94.0912 -272.287 -70.2427 -291.753 -42.4111 -310.393C5.02661 -341.936 61.5444 -371.426 126.389 -398.472L129.21 -397.615C19.3107 -351.382 -61.3556 -302.255 -110.531 -251.612C-164.43 -196.061 -178.97 -136.323 -152.636 -78.9083C-119.349 -6.34786 -26.8671 56.5213 109.191 99.5481L125.275 98.8274C132.983 98.4671 140.707 98.0571 148.475 97.6719C22.4903 52.8187 -59.763 -10.3486 -84.4486 -82.4866C-104.259 -140.324 -84.2458 -199.726 -26.5548 -254.271C-9.49588 -270.346 10.2929 -285.948 32.717 -301C85.3856 -335.979 150.012 -368.229 225.379 -397.143L228.263 -396.211C115.303 -352.401 30.793 -304.417 -22.9597 -253.6C-80.475 -199.242 -100.423 -140.038 -80.7224 -82.3996C-56.1423 -10.2616 26.0665 52.8808 152.64 97.5229C166.098 96.8354 179.567 96.1147 193.047 95.361C77.1122 49.1783 3.12435 -15.48 -12.9102 -86.04C-26.0751 -143.976 -0.755059 -202.832 60.6999 -256.259C74.8343 -268.501 90.5922 -280.512 107.974 -292.29C165.593 -330.574 238.335 -365.379 324.364 -395.826L327.352 -394.807C211.368 -353.321 122.979 -306.48 64.5529 -255.65C3.42369 -202.385 -21.9315 -143.716 -8.80654 -85.9779C7.27962 -15.4676 81.4503 49.1161 197.512 95.0752C211.288 94.2966 225.055 93.4972 238.815 92.6772C131.49 45.0781 66.8913 -19.6796 58.9212 -89.6556C52.348 -147.555 83.0708 -205.889 148.072 -258.309C158.424 -266.658 169.679 -274.917 181.835 -283.084C244.543 -324.926 325.844 -362.468 423.138 -394.509L426.194 -393.403C308.978 -354.712 214.164 -307.747 151.897 -257.588C87.1934 -205.404 56.4189 -147.207 62.8959 -89.4693C70.8426 -19.5553 135.575 45.0905 242.996 92.4784L285.298 89.9314C186.119 40.9904 130.506 -23.817 130.389 -93.2091C130.297 -151.084 166.604 -208.883 235.409 -260.359C242.043 -265.329 248.969 -270.241 256.187 -275.095C323.683 -320.192 413.509 -360.087 522.088 -393.192L525.195 -391.949C405.143 -355.414 308.288 -310.539 239.412 -259.539C170.858 -208.237 134.652 -150.636 134.77 -92.9731C134.884 -23.6804 190.516 40.9903 289.737 89.6704C304.146 88.8007 318.586 87.9185 333.071 87.0612C241.608 36.8529 194.554 -28.0166 202.049 -96.8123ZM338.384 87.1606C344.095 90.2668 349.989 93.2984 355.899 96.2804L398.963 93.7954C393.456 90.7638 388.041 87.6949 382.883 84.5639C368.043 85.4087 353.181 86.2909 338.349 87.1606H338.384ZM-139.156 107.972C-130.02 109.065 -120.767 110.097 -111.523 111.103C-102.319 111.567 -93.0527 111.981 -83.7229 112.346C-92.4026 111.219 -101.051 110.051 -109.669 108.842C-119.496 108.618 -129.352 108.32 -139.192 107.972H-139.156ZM-147.024 107.724C-155.799 107.4 -164.527 107.044 -173.21 106.655C-164.655 107.512 -156.049 108.32 -147.333 109.14C-139.266 109.637 -131.199 110.134 -123.05 110.569C-131.119 109.633 -139.116 108.701 -147.04 107.773L-147.024 107.724ZM1409.21 216.067C1404.79 214.34 1400.34 212.613 1395.87 210.911C1389.9 210.488 1383.88 210.091 1377.81 209.668C1382.24 211.445 1386.69 213.247 1391.06 215.048C1396.27 215.322 1401.5 215.57 1406.71 215.868L1409.21 216.067ZM1568.3 229.647L1563.66 228.629L1557.35 227.759L1562.14 229.001L1567.92 229.66L1568.3 229.647ZM32.6685 119.701C42.8441 120.007 53.0759 120.277 63.3639 120.509C57.9515 119.589 52.5782 118.649 47.2439 117.688C44.0734 117.117 40.9004 116.446 37.7792 115.911C26.9525 115.837 16.2079 115.7 5.55481 115.526C14.4535 116.984 23.4915 118.376 32.6685 119.701ZM-1.06503 115.414C-11.3344 115.232 -21.5255 115.009 -31.6386 114.744C-22.6773 115.994 -13.6364 117.208 -4.51578 118.384C5.13144 118.782 14.8396 119.154 24.6346 119.477C15.9595 118.177 7.39286 116.823 -1.06503 115.414ZM1370.42 207.718C1366.04 205.978 1361.56 204.264 1357.11 202.549C1351.14 202.114 1345.15 201.704 1339.05 201.307C1343.45 203.083 1347.83 204.885 1352.17 206.686C1358.23 207.01 1364.27 207.357 1370.14 207.718H1370.42ZM1227.61 160.119L1230.81 160.951L1235.51 161.759L1233.54 161.287L1227.61 160.119ZM354.729 117.017C361.891 119.589 369.272 122.087 376.744 124.547C389.026 124.099 401.323 123.627 413.634 123.13C410.653 122.037 407.606 120.956 404.687 119.838C400.737 118.322 396.839 116.785 392.991 115.228C380.282 115.849 367.502 116.471 354.729 117.017ZM145.14 121.987C134.189 121.987 123.326 121.942 112.552 121.85C121.212 123.453 129.999 125.019 138.939 126.522C149.224 126.746 159.574 126.924 169.988 127.056C164.42 125.971 158.878 124.866 153.364 123.739C150.634 123.217 147.907 122.608 145.154 122.024L145.14 121.987ZM154.756 122.77C162.043 124.273 169.451 125.727 176.955 127.156C187.55 127.268 198.416 127.355 209.264 127.392C208.305 127.181 207.355 126.994 206.431 126.783C199.147 125.193 191.936 123.515 184.785 121.813C173.503 121.929 162.295 121.991 151.159 122C152.358 122.285 153.551 122.559 154.771 122.807L154.756 122.77ZM1434.64 204.239L1440.06 205.655C1442.44 205.978 1444.82 206.326 1447.16 206.662L1442.08 205.419L1434.64 204.239ZM259.512 129.864C256.93 129.268 254.365 128.622 251.778 128.013C240.718 128.096 229.734 128.133 218.827 128.125C227.158 129.881 235.633 131.583 244.252 133.232C254.691 133.364 265.185 133.459 275.736 133.517C270.267 132.325 264.859 131.107 259.512 129.864ZM261.259 128.808C268.24 130.436 275.374 132.001 282.569 133.542C293.332 133.542 304.189 133.542 315.14 133.542C314.286 133.331 313.402 133.132 312.584 132.921C305.49 131.181 298.513 129.38 291.588 127.529C280.231 127.727 268.957 127.864 257.708 127.976L261.259 128.808ZM310.961 139.332C321.151 139.489 331.407 139.605 341.729 139.68C333.749 137.924 325.918 136.126 318.236 134.288C307.494 134.346 296.801 134.346 286.157 134.288C294.351 136.052 302.648 137.717 311.031 139.332H310.961ZM377.36 145.544C387.235 145.706 397.175 145.855 407.197 145.942C399.515 144.227 391.884 142.463 384.304 140.649C373.776 140.649 363.352 140.649 353.034 140.649C361.041 142.289 369.183 143.917 377.416 145.507L377.36 145.544ZM443.021 151.757C452.769 151.956 462.563 152.092 472.454 152.204C464.786 150.527 457.375 148.787 449.986 147.011C439.668 147.011 429.448 146.99 419.326 146.948C427.081 148.576 435.003 150.179 443.011 151.732L443.021 151.757ZM508.709 158.044C518.164 158.243 527.606 158.408 537.036 158.541C529.628 156.901 522.372 155.198 515.213 153.471C505.188 153.471 495.269 153.471 485.368 153.335C493.031 154.933 500.808 156.495 508.7 158.019L508.709 158.044ZM573.603 164.368C583.067 164.592 592.611 164.778 602.235 164.927C594.951 163.337 587.709 161.672 580.554 159.957C570.635 159.957 560.775 159.895 550.973 159.771C558.353 161.336 565.925 162.852 573.593 164.343L573.603 164.368ZM1368.89 192.758L1363.32 191.243C1358.82 190.584 1354.34 189.901 1349.77 189.267C1353.34 190.336 1356.94 191.392 1360.44 192.473C1364.86 192.994 1369.19 193.566 1373.55 194.113L1368.89 192.758ZM1313.92 182.819C1311.02 181.936 1308.13 181.092 1305.21 180.247C1300.26 179.559 1295.32 178.901 1290.39 178.271C1294.38 179.514 1298.12 180.756 1301.93 181.999C1306.97 182.57 1311.91 183.179 1316.88 183.775C1315.96 183.465 1314.95 183.129 1313.92 182.819ZM1258.99 172.879C1255.46 171.736 1251.87 170.618 1248.32 169.499C1243.06 168.816 1237.75 168.157 1232.44 167.511C1236.48 168.89 1240.53 170.307 1244.58 171.711C1249.96 172.27 1255.32 172.854 1260.64 173.45L1258.99 172.879ZM403.73 132.946C409.424 134.611 415.214 136.251 421.056 137.841C422.976 138.363 424.958 138.86 426.839 139.369C437.792 139.22 448.837 139.034 459.963 138.785H460.737C453.319 136.561 445.984 134.275 438.8 131.927C427.404 132.3 416.005 132.635 404.604 132.933L403.73 132.946ZM367.792 134.834C374.264 136.512 380.894 138.139 387.585 139.742C398.47 139.692 409.42 139.597 420.435 139.456L418.678 138.997C411.694 137.083 404.794 135.112 397.977 133.082C386.544 133.356 375.176 133.588 363.875 133.778L367.792 134.834ZM471.741 142.028C468.943 141.233 466.232 140.388 463.45 139.543L460.414 139.605C450.157 139.829 440.022 140.003 429.913 140.152C437.533 142.165 445.48 144.116 453.233 146.017C463.903 146.017 474.628 145.946 485.408 145.805C480.833 144.588 476.239 143.32 471.741 142.028ZM466.937 138.624C478.562 138.359 490.171 138.052 501.764 137.704C494.641 135.331 487.641 132.908 480.823 130.411C468.785 130.883 456.745 131.322 444.705 131.728C451.827 134.101 459.254 136.35 466.832 138.624H466.937ZM469.634 139.431C471.254 139.904 472.809 140.388 474.425 140.848C480.3 142.525 486.231 144.165 492.377 145.818C500.188 145.731 507.99 145.619 515.892 145.495L525.525 145.296L524.897 145.122C517.833 142.997 510.917 140.798 504.123 138.549C492.541 138.864 481.009 139.158 469.528 139.431H469.634ZM1283.92 181.328C1278.28 180.748 1272.61 180.193 1266.9 179.663C1271.22 181.253 1275.46 182.881 1279.7 184.508C1285.43 184.956 1291.17 185.44 1296.88 185.937C1292.5 184.355 1288.14 182.819 1283.77 181.328H1283.92ZM1299.83 186.198C1305.32 186.683 1310.75 187.18 1316.26 187.714C1312.2 186.285 1308.15 184.856 1303.78 183.452C1298.31 182.831 1292.76 182.21 1287.25 181.676C1291.45 183.175 1295.63 184.682 1299.79 186.198H1299.83ZM1264.02 179.402C1258.08 178.855 1252.14 178.321 1246.19 177.824C1250.6 179.538 1254.94 181.253 1259.25 182.993L1261.2 183.117C1266.51 183.49 1271.77 183.912 1277.04 184.359C1272.67 182.67 1268.36 181.017 1263.98 179.402H1264.02ZM1259.49 177.762C1255.38 176.196 1250.89 174.631 1246.51 173.09C1240.73 172.494 1234.92 171.848 1229.14 171.338C1233.56 172.995 1237.94 174.651 1242.27 176.308C1248 176.755 1253.74 177.252 1259.46 177.762H1259.49ZM1241.66 171.425C1238.3 170.257 1234.97 169.077 1231.55 167.934L1229.06 167.114C1223.46 166.451 1217.83 165.809 1212.18 165.188C1216.49 166.716 1220.76 168.244 1225 169.797C1230.55 170.319 1236.1 170.854 1241.62 171.425H1241.66ZM1226.73 171.115C1220.83 170.56 1214.89 170.029 1208.93 169.524C1213.35 171.251 1217.77 172.991 1222.12 174.742L1224.83 174.929C1229.93 175.289 1234.98 175.712 1240.07 176.171C1235.65 174.432 1231.19 172.767 1226.71 171.139L1226.73 171.115ZM1222.64 169.586C1218.31 168.008 1213.93 166.455 1209.51 164.902C1203.71 164.281 1197.89 163.66 1192.05 163.101C1196.47 164.741 1200.81 166.381 1205.15 168.07C1210.95 168.53 1216.81 169.052 1222.6 169.586H1222.64ZM1205.17 163.374L1204.11 163.001C1200.09 161.659 1196.33 160.367 1192.42 159.063C1186.74 158.367 1181.04 157.7 1175.31 157.062C1179.61 158.578 1183.87 160.114 1188.1 161.672C1193.78 162.194 1199.44 162.753 1205.12 163.349L1205.17 163.374ZM1173.03 156.801C1153.94 154.681 1134.71 152.858 1115.36 151.334C985.463 141.109 855.144 145.209 729.061 149.16C677.648 150.775 624.465 152.453 572.098 153.124L560.85 153.235C567.932 155.099 575.434 156.988 583.356 158.901C597.871 158.901 612.557 158.855 627.413 158.764C678.924 158.342 731.225 156.938 781.857 155.584C902.655 152.353 1027.56 148.998 1152.03 158.553C1163.43 159.423 1174.78 160.404 1186.02 161.473C1181.68 159.874 1177.34 158.309 1172.99 156.776L1173.03 156.801ZM571.613 152.117C623.909 151.446 677.057 149.769 728.404 148.166C854.694 144.203 985.259 140.102 1115.58 150.353C1133.38 151.744 1151.18 153.422 1168.78 155.323C1164.7 153.844 1160.25 152.378 1155.94 150.937C1130.54 147.771 1104.82 145.136 1078.91 143.047C943.057 132.113 806.939 136.971 675.303 141.68C629.281 143.32 581.872 145.01 534.872 146.017C541.793 148.042 549.23 150.129 557.163 152.229L571.613 152.117ZM528.487 146.153L516.27 146.402L495.665 146.7C503.2 148.675 510.817 150.589 518.631 152.465C529.183 152.465 539.736 152.465 550.447 152.328C542.969 150.316 535.652 148.265 528.443 146.128L528.487 146.153ZM527.628 143.879L531.896 145.122C579.674 144.128 627.919 142.413 674.7 140.736C806.582 136.027 942.906 131.157 1079.24 142.128C1103.49 144.083 1127.6 146.514 1151.42 149.408C1147.3 148.058 1143.13 146.708 1138.92 145.358C1107.3 140.986 1075.08 137.442 1042.54 134.76C900.606 123.093 758.563 128.746 621.202 134.225C584.678 135.679 547.284 137.158 509.913 138.326C515.687 140.202 521.592 142.053 527.565 143.805L527.628 143.879ZM1153.97 149.744C1159.29 150.402 1164.61 151.086 1169.9 151.782C1165.92 150.539 1161.93 149.297 1157.73 148.054C1152.44 147.271 1147.16 146.501 1141.81 145.756C1145.87 147.064 1149.91 148.386 1153.93 149.719L1153.97 149.744ZM1158.56 151.26C1162.61 152.676 1166.95 154.105 1171.08 155.546C1176.59 156.155 1182.1 156.789 1187.59 157.435C1183.55 156.068 1179.25 154.739 1175.06 153.422C1169.57 152.676 1164.07 151.956 1158.56 151.26ZM1190.54 157.795C1195.74 158.416 1200.91 159.063 1206.04 159.733C1202.05 158.491 1198.09 157.311 1194.13 156.13C1188.88 155.36 1183.56 154.602 1178.25 153.869C1182.51 155.161 1186.52 156.466 1190.54 157.795ZM1195.33 159.398C1198.55 160.479 1201.77 161.547 1204.96 162.653C1205.89 162.964 1206.79 163.299 1207.68 163.61C1213.07 164.194 1218.43 164.79 1223.8 165.412C1219.79 164.095 1215.78 162.79 1211.78 161.51C1206.3 160.79 1200.84 160.085 1195.4 159.398H1195.33ZM1227.23 165.822C1232.35 166.418 1237.48 167.064 1242.53 167.685C1238.54 166.443 1234.82 165.337 1230.94 164.181C1225.88 163.448 1220.79 162.728 1215.67 162.032C1219.55 163.274 1223.41 164.542 1227.23 165.822ZM1249.55 173.425C1253.85 174.929 1258.06 176.47 1262.27 178.023C1267.76 178.52 1273.19 179.017 1278.78 179.563C1274.71 178.11 1270.31 176.681 1266.04 175.252C1260.56 174.618 1255.05 174.009 1249.55 173.425ZM1282.22 179.924C1287.46 180.458 1292.73 181.005 1297.94 181.576C1294.13 180.334 1290.32 179.091 1286.44 177.849L1285.84 177.675C1280.52 176.991 1275.2 176.333 1269.83 175.699C1274.08 177.091 1278.22 178.499 1282.22 179.924ZM1307.91 183.949C1311.94 185.316 1315.98 186.695 1320.02 188.087C1325.18 188.596 1330.36 189.093 1335.49 189.64C1331.5 188.397 1327.48 187.055 1323.48 185.788C1318.28 185.142 1313.09 184.546 1307.91 183.949ZM1340.19 190.162C1345.06 190.683 1349.91 191.23 1354.87 191.789C1351.14 190.659 1347.41 189.528 1343.64 188.41C1338.71 187.739 1333.78 187.08 1328.83 186.447C1332.71 187.677 1336.38 188.919 1340.19 190.162ZM1367.38 194.635C1371.37 195.877 1375.14 197.119 1378.95 198.362C1383.68 198.859 1388.4 199.343 1393.1 199.865C1389.15 198.722 1385.49 197.592 1381.65 196.473C1376.9 195.802 1372.14 195.231 1367.38 194.635ZM1361.74 193.939C1356.61 193.317 1351.42 192.696 1346.22 192.15C1350.27 193.508 1354.3 194.875 1358.32 196.25C1363.5 196.747 1368.68 197.244 1373.84 197.778C1369.84 196.486 1365.8 195.206 1361.74 193.939ZM1341.59 191.628C1336.2 191.044 1330.6 190.472 1325.29 189.913C1329.37 191.404 1333.73 192.895 1337.89 194.411C1343.34 194.871 1348.8 195.368 1354.2 195.865C1350.04 194.436 1345.85 193.032 1341.59 191.628ZM1321.63 189.553C1315.9 188.981 1310.2 188.435 1304.41 187.9C1308.74 189.507 1313.04 191.122 1317.28 192.746C1323 193.181 1328.74 193.641 1334.41 194.125C1330.17 192.584 1325.92 191.019 1321.63 189.553ZM1301.35 187.639C1295.49 187.118 1289.67 186.596 1283.76 186.124C1288.13 187.83 1292.47 189.545 1296.78 191.267H1297.55C1303.19 191.653 1308.8 192.075 1314.45 192.51C1310.11 190.895 1305.76 189.255 1301.35 187.639ZM1281.26 185.937C1275.22 185.457 1269.18 184.997 1263.15 184.558C1267.56 186.36 1271.97 188.174 1276.32 190C1282.36 190.348 1288.41 190.721 1294.33 191.118C1290.02 189.379 1285.67 187.639 1281.26 185.937ZM1261.12 184.397C1255.02 183.974 1248.85 183.577 1242.68 183.154C1247.16 185.055 1251.57 186.956 1255.96 188.882C1262.15 189.18 1268.33 189.503 1274.51 189.851C1269.89 188.049 1265.33 186.223 1261.12 184.397ZM1257.38 182.868C1252.98 181.104 1248.57 179.377 1244.12 177.65C1238.05 177.153 1232 176.668 1225.99 176.221C1230.44 178.035 1234.82 179.862 1239.21 181.7C1245.04 182.061 1251.1 182.458 1257.2 182.868H1257.38ZM1223.94 176.109C1111.53 168.021 998.098 169.897 888.372 171.711C839.433 172.519 789.132 173.351 739.443 173.289C707.481 173.289 676.278 172.908 645.834 172.146C652.724 173.438 659.867 174.718 667.264 175.985C708.226 177.526 750.779 178.437 794.923 178.718C843.436 179.017 892.794 178.482 940.504 177.961C1037.61 176.917 1137.77 175.848 1237.38 181.688C1232.88 179.762 1228.42 177.911 1223.94 176.109ZM739.018 172.071C788.578 172.071 839.003 171.288 887.766 170.481C996.412 168.692 1108.73 166.853 1220.29 174.643C1215.9 172.879 1211.46 171.127 1206.98 169.387C1200.73 168.849 1194.44 168.344 1188.12 167.872C1069.84 159.063 950.737 161.659 835.531 164.144C785.785 165.238 734.361 166.356 683.64 166.542C660.808 166.625 638.294 166.526 616.099 166.244C623.239 167.735 630.627 169.226 638.365 170.717C671.021 171.562 704.569 172.005 739.008 172.046L739.018 172.071ZM683.178 165.412C733.758 165.225 785.182 164.107 834.897 163.026C950.35 160.541 1069.68 157.895 1188.4 166.753C1193.35 167.114 1198.29 167.511 1203.22 167.909C1198.82 166.232 1194.4 164.579 1189.98 162.939C1177.31 161.697 1164.48 160.603 1151.73 159.622C1027.69 150.104 903.16 153.409 782.446 156.677C731.814 158.031 679.438 159.423 627.861 159.858C614.418 159.965 601.106 160.015 587.925 160.007C595.022 161.663 602.506 163.349 610.377 165.064C634.192 165.349 658.479 165.486 683.168 165.387L683.178 165.412ZM576.127 158.851C568.732 157.062 561.415 155.198 554.185 153.285C543.671 153.384 533.133 153.422 522.902 153.434C530.445 155.215 538.132 156.942 545.963 158.615C555.789 158.739 565.843 158.818 576.127 158.851ZM511.16 152.428C503.677 150.589 496.28 148.7 489.036 146.75C478.526 146.861 467.796 146.948 457.464 146.973C465.184 148.787 472.885 150.552 480.92 152.266C490.665 152.366 500.814 152.415 510.984 152.428H511.16ZM446.323 146.066C438.581 144.194 431.053 142.268 423.739 140.289C412.816 140.425 402.02 140.525 391.245 140.587C398.975 142.426 407.002 144.215 415.051 145.967C425.244 146.041 435.635 146.079 446.147 146.066H446.323ZM380.976 139.754C375.817 138.512 370.754 137.245 365.787 135.953C363.212 135.282 360.654 134.561 357.968 133.878C346.819 134.035 335.739 134.159 324.729 134.25C332.684 136.126 340.84 137.978 349.099 139.73C359.647 139.779 370.214 139.788 380.801 139.754H380.976ZM314.664 131.815C316.955 132.387 319.272 132.933 321.589 133.48C332.746 133.405 343.958 133.29 355.224 133.132C347.392 131.02 339.756 128.87 332.193 126.634C320.584 126.94 308.958 127.201 297.314 127.417C302.993 128.916 308.729 130.382 314.523 131.815H314.664ZM361.246 133.058C372.643 132.871 384.165 132.648 395.705 132.374C388.214 130.113 380.831 127.794 373.555 125.416C365.316 125.706 357.117 125.975 348.956 126.224C345.2 126.336 341.5 126.41 337.774 126.51C345.337 128.746 353.158 130.921 361.096 133.033L361.246 133.058ZM401.457 132.238L404.313 132.163C415.079 131.89 425.891 131.554 436.734 131.206C429.497 128.808 422.473 126.323 415.522 123.751C403.311 124.265 391.096 124.737 378.878 125.168C386.124 127.591 393.624 129.939 401.307 132.213L401.457 132.238ZM442.388 130.995C454.513 130.597 466.69 130.15 478.757 129.69C471.909 127.206 465.211 124.559 458.649 121.9C446.062 122.472 433.444 123.027 420.798 123.565C427.7 126.1 434.899 128.585 442.247 130.995H442.388ZM484.376 129.479C511.896 128.398 539.303 127.206 566.222 126.025C709.649 119.751 857.92 113.265 1006.53 125.727C1043.65 128.848 1080.35 133.085 1116.2 138.388C1112.35 137.253 1108.48 136.135 1104.59 135.033C1060.93 127.789 1015.76 122.148 969.883 118.21C815.307 105.027 661.019 112.346 511.822 119.452L463.59 121.664C470.403 124.335 477.258 126.932 484.13 129.479H484.376ZM1006.28 126.485C858.08 114.06 709.984 120.546 566.729 126.808C540.258 127.963 513.368 129.131 486.336 130.2C493.255 132.685 500.314 135.17 507.567 137.518C545.536 136.35 583.519 134.847 620.632 133.368C758.204 127.889 900.439 122.186 1042.93 133.927C1073.59 136.461 1103.97 139.763 1133.83 143.805C1129.84 142.562 1125.85 141.32 1121.87 140.078C1084.12 134.338 1045.37 129.787 1006.14 126.485H1006.28ZM1136.9 144.203C1141.9 144.886 1146.92 145.594 1151.76 146.315C1147.82 145.184 1144.07 144.103 1140.21 143.01C1135.22 142.19 1130.17 141.382 1125.23 140.599C1129.13 141.792 1132.92 142.985 1136.9 144.203ZM1155.86 146.911C1160.36 147.57 1164.81 148.253 1169.26 148.949C1166.03 148.054 1162.8 147.135 1159.55 146.265C1154.84 145.433 1150.14 144.625 1145.35 143.78C1148.77 144.824 1152.29 145.855 1155.82 146.911H1155.86ZM1161.73 148.663C1165.68 149.831 1169.44 151.011 1173.27 152.216C1178.16 152.875 1183.02 153.546 1187.86 154.242C1184.21 153.161 1180.53 152.08 1176.87 151.036C1171.81 150.229 1166.77 149.433 1161.69 148.663H1161.73ZM1192.49 154.875C1196.85 155.521 1201.23 156.118 1205.59 156.851C1202.25 155.931 1198.89 155.049 1195.57 154.167C1191.2 153.397 1186.8 152.651 1182.38 151.931C1185.92 152.925 1189.1 153.906 1192.47 154.9L1192.49 154.875ZM1198.91 156.789C1202.61 157.919 1206.28 159.063 1209.99 160.218C1214.81 160.864 1219.6 161.46 1224.42 162.194C1220.73 161.1 1217 160.069 1213.3 159.025C1208.48 158.28 1203.7 157.547 1198.89 156.814L1198.91 156.789ZM1229.35 162.864C1233.51 163.461 1237.65 164.07 1241.75 164.691C1238.69 163.858 1235.63 163.014 1232.58 162.206C1228.26 161.473 1223.97 160.74 1219.63 160.032C1222.77 160.988 1226.04 161.933 1229.25 162.889L1229.35 162.864ZM1236.18 164.927C1239.71 165.996 1243.29 167.089 1246.84 168.195C1251.47 168.791 1256.07 169.4 1260.61 170.021C1257.22 169.04 1253.86 168.058 1250.44 167.101C1245.62 166.368 1240.85 165.648 1236.18 164.927ZM1252.79 170.083C1255.28 170.878 1257.78 171.636 1260.23 172.444L1264.58 173.898C1269.54 174.469 1274.51 175.053 1279.31 175.662C1275.35 174.494 1271.71 173.314 1267.86 172.171C1262.85 171.475 1257.81 170.779 1252.69 170.096L1252.79 170.083ZM1284.34 176.296C1288.92 176.88 1293.43 177.464 1297.99 178.072C1294.36 177.029 1290.74 176.022 1287.12 175.016C1282.6 174.32 1278.05 173.637 1273.51 172.978C1277.02 174.059 1280.64 175.165 1284.23 176.283L1284.34 176.296ZM1303.96 178.892C1307.67 179.414 1311.64 179.961 1315.44 180.508C1312.54 179.725 1309.6 178.93 1306.67 178.159C1302.72 177.505 1298.75 176.859 1294.75 176.221C1297.72 177.091 1300.9 177.973 1303.85 178.88L1303.96 178.892ZM1311.56 181.141L1315.5 182.259C1317.8 182.955 1320.05 183.688 1322.32 184.397C1326.82 184.943 1331.3 185.527 1335.74 186.111C1332.27 185.117 1328.79 184.111 1325.3 183.142C1320.53 182.446 1316.02 181.775 1311.43 181.079L1311.56 181.141ZM1342.37 187.006C1346.08 187.503 1349.78 187.987 1353.49 188.497C1350.48 187.689 1347.48 186.919 1344.44 186.136C1340.69 185.527 1336.93 184.894 1333.2 184.334C1336.03 185.204 1339.13 186.049 1342.26 186.993L1342.37 187.006ZM1371.99 192.485L1380.56 194.97C1384.26 195.455 1387.97 195.976 1391.68 196.473L1383.33 194.299C1379.43 193.665 1375.68 193.057 1371.88 192.473L1371.99 192.485ZM1389.2 197.455C1392.6 198.461 1395.95 199.505 1399.33 200.536C1403.6 201.033 1407.9 201.518 1412.14 202.04C1408.75 201.083 1405.3 200.139 1401.85 199.194C1397.55 198.598 1393.32 198.026 1389.16 197.455H1389.2ZM1419.85 202.996C1423.36 203.444 1426.88 203.891 1430.4 204.363C1428.25 203.804 1426.13 203.22 1423.95 202.673L1422.21 202.238C1418.47 201.667 1414.74 201.108 1411.02 200.561C1413.96 201.369 1416.88 202.201 1419.75 202.996H1419.85ZM1481.81 213.272L1479.56 212.899L1475.04 212.203L1480.16 213.557L1486.63 214.39L1481.81 213.272ZM1461.41 210.116C1457.98 209.594 1454.52 209.097 1451.06 208.6C1453.93 209.395 1456.79 210.178 1459.66 210.985L1469.98 212.228C1467.04 211.507 1464.18 210.824 1461.31 210.116H1461.41ZM1441.44 207.246C1437.13 206.649 1432.77 206.078 1428.4 205.506C1431.88 206.525 1435.4 207.544 1438.81 208.587C1443.07 209.047 1447.3 209.532 1451.53 210.016C1448.04 209.084 1444.74 208.153 1441.33 207.246H1441.44ZM1420.93 204.537C1416.2 203.941 1411.48 203.357 1406.72 202.785C1410.71 204.028 1414.24 205.183 1417.97 206.401C1422.8 206.873 1427.6 207.382 1432.4 207.892C1428.49 206.761 1424.65 205.643 1420.82 204.537H1420.93ZM1400.57 202.052C1395.42 201.456 1390.26 200.81 1385.11 200.313C1389.14 201.667 1393.16 203.009 1397.2 204.4C1402.37 204.86 1407.49 205.357 1412.6 205.854C1408.58 204.595 1404.54 203.336 1400.48 202.077L1400.57 202.052ZM1380.23 199.791C1374.81 199.219 1369.25 198.648 1363.88 198.113C1368.09 199.588 1372.28 201.079 1376.43 202.586C1381.92 203.034 1387.34 203.518 1392.87 204.003C1388.58 202.611 1384.39 201.207 1380.14 199.816L1380.23 199.791ZM1359.79 197.728C1354.14 197.194 1348.48 196.647 1342.77 196.15C1347.1 197.753 1351.44 199.356 1355.71 200.984C1361.42 201.394 1367.04 201.841 1372.7 202.301C1368.33 200.785 1364.03 199.269 1359.7 197.753L1359.79 197.728ZM1339.33 195.902C1333.48 195.392 1327.59 194.895 1321.68 194.436C1326.06 196.142 1330.41 197.857 1334.74 199.58C1340.65 199.952 1346.54 200.362 1352.45 200.822C1348.09 199.145 1343.74 197.517 1339.33 195.902ZM1318.83 194.224C1312.85 193.765 1306.89 193.342 1300.77 192.982C1305.17 194.771 1309.55 196.573 1313.89 198.387C1319.89 198.722 1325.94 199.083 1331.88 199.455C1327.7 197.683 1323.34 195.939 1318.83 194.224ZM1298.5 192.758L1297.35 192.671C1291.54 192.286 1285.77 191.926 1279.98 191.59C1284.42 193.462 1288.82 195.355 1293.17 197.269C1299.37 197.567 1305.54 197.877 1311.75 198.213C1307.37 196.386 1302.95 194.56 1298.5 192.758ZM1278.02 191.516C1271.76 191.156 1265.48 190.808 1259.2 190.497C1263.65 192.46 1268.04 194.427 1272.37 196.399C1278.7 196.66 1285.03 196.933 1291.33 197.231C1286.89 195.256 1282.48 193.355 1277.86 191.466L1278.02 191.516ZM1257.63 190.423C1169.13 186.049 1080.05 186.459 993.531 186.857C946.834 187.08 898.519 187.304 851.043 186.77C802.105 186.215 755.181 184.906 710.27 182.843C716.261 183.713 722.464 184.583 728.838 185.44C788.121 188.943 847.483 191.146 906.568 192.038C952.797 192.808 999.932 192.907 1045.49 193.007C1119.41 193.156 1195.27 193.33 1270.91 196.337C1266.49 194.324 1262.06 192.336 1257.61 190.373L1257.63 190.423ZM850.686 185.453C898.092 185.987 946.336 185.763 992.968 185.552C1078.54 185.154 1166.57 184.757 1254.23 188.969C1249.98 187.031 1245.32 185.117 1240.83 183.204C1140.39 177.203 1039.13 178.234 941.03 179.352C893.28 179.862 843.886 180.396 795.273 180.11C754.565 179.862 715.176 179.07 677.106 177.737C683.51 178.797 690.133 179.849 696.976 180.893C748.301 183.364 799.602 184.849 850.644 185.341L850.686 185.453ZM665.119 177.29C657.834 177 650.604 176.701 643.43 176.395C649.16 177.223 654.96 178.052 660.83 178.88C667.778 179.302 674.823 179.7 681.876 180.122C676.206 179.079 670.644 178.134 665.076 177.178L665.119 177.29ZM655.696 175.625C649.158 174.457 642.65 173.243 636.171 171.984C627.72 171.773 619.32 171.512 610.986 171.239C617.674 172.369 624.494 173.475 631.369 174.544C639.405 174.867 647.477 175.19 655.654 175.513L655.696 175.625ZM628.918 170.568C621.845 169.164 614.798 167.735 607.828 166.232C598.512 166.091 589.293 165.925 580.169 165.735C587.404 167.101 594.8 168.431 602.257 169.735C611.115 169.967 619.988 170.208 628.875 170.456L628.918 170.568ZM570.126 165.499C561.931 165.283 553.767 165.055 545.633 164.815C552.785 166.058 559.996 167.176 567.322 168.319C574.875 168.667 582.485 168.977 590.16 169.276C583.321 167.934 576.652 166.666 570.083 165.387L570.126 165.499ZM563.571 164.256C556.379 162.815 549.343 161.324 542.374 159.82C533.217 159.696 524.06 159.572 515.02 159.386C522.443 160.785 529.994 162.152 537.673 163.486C546.204 163.66 554.817 163.863 563.51 164.095L563.571 164.256ZM505.373 159.174C496.649 158.988 487.952 158.777 479.341 158.516C486.529 159.758 493.829 160.926 501.23 162.082C509.455 162.438 517.789 162.773 526.232 163.088C519.15 161.659 512.251 160.342 505.417 159.013L505.373 159.174ZM499.17 157.932C491.752 156.453 484.457 154.925 477.292 153.372C467.652 153.273 458.099 153.124 448.611 152.962C456.191 154.403 463.756 155.807 471.729 157.174C480.856 157.373 490.022 157.584 499.229 157.808L499.17 157.932ZM439.757 152.8C430.963 152.614 422.266 152.403 413.594 152.167C421.098 153.409 428.602 154.652 436.564 155.894C444.675 156.23 452.852 156.553 461.12 156.839C453.963 155.397 446.839 154.043 439.815 152.676L439.757 152.8ZM434.018 151.67C426.411 150.154 418.996 148.589 411.641 146.998C401.902 146.915 392.232 146.799 382.632 146.65C390.507 148.129 398.513 149.582 406.641 150.986C415.732 151.123 424.892 151.347 434.077 151.546L434.018 151.67ZM374.439 146.377C365.197 146.215 356.007 146.004 346.913 145.768C354.657 147.085 362.522 148.352 370.519 149.595C379.162 149.943 387.933 150.253 396.729 150.539C389.041 149.185 381.626 147.806 374.439 146.377ZM369.2 145.358C361.332 143.805 353.621 142.202 346.002 140.562C335.944 140.504 325.952 140.405 316.026 140.264C324.056 141.78 332.197 143.25 340.45 144.675C349.835 144.936 359.421 145.172 369.059 145.358H369.2ZM307.936 140.078C298.494 139.912 289.042 139.721 279.581 139.506C287.58 140.848 295.635 142.152 303.813 143.407C312.761 143.755 321.801 144.066 330.932 144.339C323.154 143.022 315.509 141.593 307.936 140.078ZM303.152 139.146C295.134 137.568 287.269 135.928 279.499 134.263C269.14 134.213 258.836 134.126 248.588 134.002C256.808 135.555 265.18 137.046 273.608 138.5C283.443 138.835 293.261 139.034 303.176 139.208L303.152 139.146ZM241.375 133.902C231.544 133.762 221.78 133.584 212.084 133.368C220.272 134.743 228.559 136.073 236.947 137.357C246.264 137.688 255.631 137.994 265.047 138.276C256.976 136.901 249.047 135.464 241.258 133.965L241.375 133.902ZM237.011 133.058C228.768 131.442 220.682 129.777 212.692 128.088C202.07 128.088 191.491 128.017 180.956 127.876C189.396 129.454 197.998 130.995 206.681 132.474C216.633 132.747 226.704 132.962 236.894 133.12L237.011 133.058ZM208.117 125.752L215.757 127.355C226.837 127.355 237.952 127.355 249.175 127.268C241.082 125.305 233.08 123.304 225.222 121.217C213.581 121.44 202.04 121.614 190.596 121.739C196.287 123.147 202.088 124.505 208 125.814L208.117 125.752ZM254.99 127.206C266.319 127.119 277.729 126.969 289.231 126.783C281.393 124.658 273.537 122.484 266.005 120.235C254.103 120.575 242.265 120.865 230.491 121.105C238.5 123.25 246.628 125.305 254.873 127.268L254.99 127.206ZM294.821 126.684C306.468 126.477 318.177 126.22 329.951 125.913C322.338 123.64 314.904 121.279 307.596 118.881L293.095 119.415C285.732 119.664 278.491 119.862 271.184 120.074C278.816 122.397 286.686 124.609 294.704 126.746L294.821 126.684ZM335.452 125.764L348.48 125.429C356.131 125.197 363.809 124.944 371.514 124.671C364.601 122.385 357.778 120.061 351.28 117.663L349.967 117.166C337.546 117.713 325.15 118.235 312.772 118.707C320.002 121.18 327.577 123.54 335.335 125.826L335.452 125.764ZM407.981 118.782C411.597 120.161 415.305 121.503 419.013 122.844C431.683 122.306 444.371 121.751 457.075 121.18C450.481 118.496 444.063 115.754 437.823 112.954L398.225 114.93C401.304 116.284 404.536 117.576 407.864 118.844L407.981 118.782ZM462.262 120.943C478.721 120.19 495.057 119.424 511.271 118.645C660.653 111.563 815.117 104.245 970.094 117.465C1013.59 121.187 1056.45 126.442 1098 133.145C1094.43 132.151 1090.82 131.169 1087.22 130.2C1037.76 121.289 986.107 114.464 933.463 109.885C772.326 95.9077 611.684 104.096 456.355 112.01L442.633 112.743C449.045 115.564 455.503 118.322 462.145 121.006L462.262 120.943ZM1102.07 133.865L1102.39 133.965C1106.44 134.623 1110.45 135.282 1114.44 135.977C1111.48 135.207 1108.45 134.449 1105.42 133.691C1101.13 132.871 1096.85 132.064 1092.54 131.268C1095.72 132.126 1098.92 132.971 1102.07 133.865ZM1108.66 135.754C1112.33 136.81 1115.97 137.866 1119.57 138.947C1124.23 139.643 1128.86 140.351 1133.5 141.084C1132.48 140.811 1131.46 140.512 1130.47 140.227C1128 139.556 1125.51 138.91 1123 138.239C1118.24 137.381 1113.46 136.549 1108.66 135.741L1108.66 135.754ZM1131.31 139.854C1133.71 140.512 1136.12 141.208 1138.48 141.879L1150.04 143.793C1147.27 143.084 1144.5 142.364 1141.71 141.668C1137.69 140.898 1133.63 140.127 1129.56 139.394L1131.31 139.854ZM1166.61 147.532L1175.05 149.856L1185.96 151.645C1183.35 150.974 1180.67 150.303 1178.17 149.645C1174.13 148.912 1170.32 148.216 1166.5 147.532H1166.61ZM1211.68 157.808C1215.08 158.342 1218.46 158.901 1221.83 159.448C1220.47 159.1 1219.1 158.727 1217.74 158.392L1214.76 157.659L1203.9 155.658L1211.68 157.808ZM1241.37 163.771L1248.75 165.809L1258.14 167.288C1255.84 166.704 1253.55 166.12 1251.26 165.561C1247.86 164.927 1244.55 164.355 1241.26 163.759L1241.37 163.771ZM1257.11 168.182C1260.18 169.064 1263.23 169.959 1266.28 170.854C1270.29 171.425 1274.31 171.997 1278.25 172.581C1275.28 171.773 1272.27 170.978 1269.26 170.183C1265.2 169.487 1261.15 168.828 1257.07 168.17L1257.11 168.182ZM1285.71 173.699C1288.66 174.146 1291.65 174.618 1294.61 175.09L1288.71 173.624C1285.61 173.065 1282.48 172.494 1279.35 171.947C1281.24 172.481 1283.51 173.09 1285.65 173.624L1285.71 173.699ZM1305.06 176.78L1307.8 177.227L1307.41 177.14L1303.63 176.445L1305.06 176.78ZM1316.98 179.936C1319.21 180.52 1321.42 181.179 1323.6 181.713C1326.28 182.11 1328.93 182.508 1331.63 182.955L1325.54 181.452C1322.66 180.905 1319.8 180.408 1316.94 179.924L1316.98 179.936ZM1343.03 184.732L1344.34 184.943L1342.37 184.57L1343.03 184.732ZM1355.75 188.062C1357.86 188.621 1359.95 189.205 1362.06 189.776L1369.74 190.907L1364.04 189.503C1361.35 189.006 1358.5 188.534 1355.71 188.049L1355.75 188.062ZM1382.17 192.82L1382.81 192.92L1381.82 192.734L1382.17 192.82ZM1395.13 196.2L1398.01 196.946L1400.88 197.741C1403.29 198.076 1405.71 198.412 1408.3 198.772L1402.98 197.529C1400.13 197.057 1397.6 196.61 1395.02 196.188L1395.13 196.2ZM1523.26 221.223L1516.05 220.118C1517.64 220.515 1519.28 220.925 1520.85 221.36C1523.06 221.621 1525.2 221.907 1527.38 222.18C1525.88 221.845 1524.53 221.522 1523.15 221.211L1523.26 221.223ZM1501.93 218.018L1491.52 216.552C1494.27 217.297 1496.99 218.068 1499.7 218.825C1503.19 219.223 1506.66 219.645 1510.12 220.068C1507.29 219.36 1504.57 218.676 1501.82 218.005L1501.93 218.018ZM1481.12 215.173C1476.93 214.613 1472.75 214.054 1468.51 213.533C1472.02 214.539 1475.53 215.558 1478.98 216.577C1483.23 217.024 1487.37 217.484 1491.56 217.943C1488 216.987 1484.52 216.08 1481.01 215.16L1481.12 215.173ZM1460.8 212.601C1455.93 212.004 1451.05 211.358 1446.08 210.861C1449.97 212.054 1453.84 213.259 1457.68 214.477C1462.53 214.937 1467.28 215.409 1472.07 215.893C1468.27 214.775 1464.51 213.669 1460.69 212.588L1460.8 212.601ZM1439.85 210.116C1434.75 209.557 1429.65 208.997 1424.52 208.463C1428.54 209.793 1432.58 211.159 1436.61 212.526C1441.81 212.973 1446.98 213.446 1452.12 213.918C1448.01 212.667 1443.87 211.412 1439.69 210.153L1439.85 210.116ZM1419.18 207.929C1413.77 207.382 1408.22 206.848 1402.9 206.339C1407.18 207.817 1411.44 209.296 1415.63 210.811C1421.07 211.234 1426.51 211.669 1431.89 212.129C1427.68 210.737 1423.41 209.35 1419.09 207.966L1419.18 207.929ZM1398.42 205.929C1392.81 205.419 1387.17 204.922 1381.5 204.45C1385.83 206.028 1390.13 207.643 1394.4 209.258C1400.1 209.656 1405.82 210.066 1411.5 210.501C1407.17 208.997 1402.8 207.482 1398.42 205.929ZM1377.69 204.127C1371.87 203.642 1366.04 203.195 1360.21 202.76C1364.59 204.417 1368.97 206.123 1373.33 207.879C1379.2 208.24 1385.04 208.612 1390.89 209.01C1386.52 207.407 1382.14 205.779 1377.63 204.164L1377.69 204.127ZM1336.33 201.083L1333.73 200.909C1328.47 200.574 1323.18 200.263 1317.89 199.952C1322.33 201.824 1326.72 203.705 1331.07 205.593C1337.26 205.879 1343.43 206.189 1349.6 206.513C1345.22 204.686 1340.79 202.922 1336.35 201.12L1336.33 201.083ZM1315.64 199.84C1309.39 199.493 1303.12 199.165 1296.83 198.859C1301.17 200.789 1305.52 202.735 1309.87 204.699C1316.23 204.947 1322.59 205.22 1328.93 205.519C1324.56 203.622 1320.13 201.733 1315.64 199.853L1315.64 199.84ZM1294.94 198.772C1288.56 198.457 1282.18 198.171 1275.8 197.915C1280.13 199.903 1284.4 201.895 1288.61 203.891C1295.09 204.115 1301.56 204.359 1308.02 204.624C1303.71 202.669 1299.36 200.723 1294.94 198.784L1294.94 198.772ZM1274.26 197.853C1197.7 194.721 1120.81 194.548 1045.94 194.386C1000.18 194.299 953.146 194.2 906.813 193.429C854.06 192.61 801.091 190.777 748.142 187.938C752.094 188.435 756.015 188.944 760.107 189.441C827.434 194.188 895.011 197.26 962.314 198.635C1007.47 199.642 1053.5 200.064 1098.01 200.487C1160.1 201.071 1223.67 201.729 1287.14 203.841C1282.88 201.853 1278.6 199.853 1274.26 197.865L1274.26 197.853ZM726.032 186.67L721.346 186.372L727.704 186.906L726.032 186.67ZM694.448 182.023C689.074 181.762 683.69 181.477 678.406 181.179C683.179 181.8 688.021 182.421 692.894 183.03L708.031 184.086C703.521 183.415 698.972 182.732 694.448 182.023ZM640.546 177.513C636.292 176.867 632.092 176.271 627.885 175.563L613.538 174.829C618.125 175.426 622.801 176.072 627.47 176.606L640.546 177.513ZM654.094 179.762L662.491 180.669L657.33 179.948L654.094 179.762ZM616.249 173.624C610.32 172.643 604.498 171.661 598.766 170.642C591.919 170.394 585.111 170.125 578.342 169.835C584.568 170.767 590.895 171.686 597.278 172.568C603.598 173.003 609.744 173.351 616.249 173.624ZM563.857 169.201C557.949 168.928 552.068 168.63 546.222 168.331C551.22 168.99 556.247 169.636 561.301 170.257C566.938 170.655 572.606 171.04 578.3 171.4C573.584 170.742 568.664 170.009 563.88 169.263L563.857 169.201ZM552.924 167.449C546.553 166.414 540.289 165.349 534.13 164.256C526.483 163.999 518.883 163.714 511.33 163.399C517.92 164.393 524.617 165.362 531.423 166.306C538.495 166.778 545.706 167.151 552.947 167.511L552.924 167.449ZM497.668 162.802C492.052 162.554 486.427 162.281 480.871 162.007C486.825 162.777 492.815 163.548 498.9 164.293C503.806 164.616 508.716 164.952 513.688 165.262C508.306 164.517 502.996 163.685 497.692 162.864L497.668 162.802ZM487.901 161.249C481.377 160.181 474.945 159.075 468.578 157.957C461.097 157.708 453.669 157.443 446.294 157.162C453.226 158.193 460.223 159.212 467.312 160.193C474.155 160.616 481.009 160.976 487.925 161.311L487.901 161.249ZM433.394 156.627C426.889 156.354 420.41 156.056 413.956 155.733C420.038 156.561 426.196 157.344 432.431 158.081C438.455 158.479 444.51 158.864 450.45 159.224C444.842 158.441 439.132 157.572 433.453 156.689L433.394 156.627ZM424.042 155.149C417.1 154.031 410.24 152.879 403.461 151.695C395.313 151.446 387.22 151.16 379.158 150.862C386.355 151.943 393.608 152.987 400.993 154.006C408.689 154.453 416.392 154.855 424.1 155.211L424.042 155.149ZM367.232 150.39C360.278 150.108 353.35 149.802 346.448 149.471C352.923 150.316 359.428 151.148 365.994 151.956C372.41 152.366 378.896 152.776 385.387 153.198C379.316 152.303 373.275 151.396 367.29 150.452L367.232 150.39ZM358.595 149.036C351.365 147.868 344.266 146.675 337.229 145.457C328.733 145.221 320.289 144.936 311.875 144.637C319.328 145.743 326.775 146.837 334.521 147.88C342.522 148.328 350.566 148.733 358.653 149.098L358.595 149.036ZM300.781 144.227C293.399 143.929 286.044 143.61 278.717 143.271C285.574 144.165 292.49 145.031 299.466 145.867C306.278 146.302 313.156 146.725 320.09 147.11C313.66 146.29 307.19 145.271 300.84 144.29L300.781 144.227ZM292.819 142.985C285.334 141.792 277.923 140.55 270.588 139.257C261.777 139.026 253.011 138.756 244.289 138.45C252.077 139.605 259.886 140.724 267.857 141.805C276.17 142.302 284.507 142.674 292.869 143.022L292.819 142.985ZM234.161 138.177C226.24 137.878 218.415 137.555 210.616 137.207C217.837 138.135 225.132 139.042 232.502 139.928C239.846 140.376 247.225 140.79 254.638 141.171C247.81 140.227 240.988 139.208 234.161 138.177ZM226.695 137.033C218.909 135.791 211.264 134.549 203.661 133.232C194.467 133.008 185.293 132.747 176.211 132.449C184.255 133.629 192.359 134.785 200.586 135.89C209.307 136.35 218.016 136.686 226.695 137.033ZM198.324 132.324C190.112 130.883 182.011 129.396 174.022 127.864C163.845 127.74 153.719 127.566 143.655 127.367C152.133 128.767 160.699 130.121 169.354 131.43C179 131.761 188.68 132.059 198.394 132.324H198.324ZM135.881 127.181C126.41 126.969 116.964 126.733 107.465 126.448C115.778 127.69 124.159 128.833 132.677 129.964C141.66 130.374 150.564 130.759 159.766 131.094C151.87 129.84 143.885 128.535 135.952 127.181H135.881ZM131.029 126.348C122.576 124.89 114.231 123.379 105.996 121.813C95.5229 121.714 85.102 121.565 74.7326 121.366C83.468 122.795 92.3299 124.186 101.274 125.516C111.151 125.839 121.128 126.116 131.205 126.348H131.029ZM67.5757 121.229C57.6471 121.018 47.7796 120.782 37.9987 120.496C46.6285 121.739 55.3584 122.936 64.1883 124.087C73.4901 124.501 82.8566 124.87 92.2881 125.193C84.0209 123.917 75.8069 122.596 67.646 121.229H67.5757ZM48.3176 116.806C55.6389 118.123 63.0517 119.403 70.5559 120.645C81.163 120.852 91.7778 121.018 102.4 121.142L100.241 120.732C92.4267 119.229 84.7208 117.638 77.0054 116.023C65.82 116.023 54.6698 116.023 43.6321 115.949L48.3176 116.806ZM101.542 119.8C104.011 120.285 106.541 120.745 109.112 121.217C120.124 121.316 131.157 121.378 142.272 121.378C133.813 119.564 125.387 117.651 117.141 115.75C105.464 115.874 93.9813 115.957 82.6943 115.998C88.9103 117.307 95.1812 118.574 101.507 119.8H101.542ZM148.169 121.44C159.46 121.44 170.821 121.44 182.227 121.279C173.984 119.291 165.792 117.253 157.749 115.141C145.883 115.39 134.093 115.588 122.378 115.738C130.897 117.713 139.471 119.552 148.169 121.44ZM187.841 121.242C199.441 121.13 211.053 120.956 222.827 120.745C214.769 118.595 206.889 116.359 199.211 114.097C187.059 114.454 174.984 114.768 162.987 115.042C171.087 117.117 179.403 119.204 187.822 121.192L187.841 121.242ZM228.092 120.62C239.96 120.38 251.893 120.094 263.891 119.763C257.037 117.725 250.278 115.663 243.676 113.551C242.759 113.265 241.868 112.954 240.946 112.656L237.173 112.818C226.077 113.24 214.997 113.613 204.014 113.961C211.826 116.206 219.846 118.409 228.073 120.571L228.092 120.62ZM246.159 112.582C253.612 114.992 261.314 117.315 269.107 119.602C276.936 119.378 284.731 119.154 292.617 118.893L305.73 118.409C302.955 117.489 300.12 116.595 297.376 115.663C292.742 114.073 288.157 112.457 283.621 110.817C270.967 111.397 258.333 111.94 245.72 112.445L246.159 112.582ZM300.065 114.681C303.595 115.924 307.223 117.055 310.799 118.235C323.237 117.763 335.694 117.249 348.17 116.694C341.069 114.097 334.08 111.426 327.274 108.68C314.337 109.351 301.328 109.923 288.386 110.581C292.182 111.94 296.057 113.29 300.011 114.632L300.065 114.681ZM353.155 116.483C366.001 115.911 378.813 115.315 391.593 114.694C384.902 111.973 378.394 109.177 372.043 106.332C358.761 107.053 345.437 107.753 332.069 108.432C338.892 111.128 345.925 113.824 353.115 116.471L353.155 116.483ZM396.639 114.458L436.374 112.47C430.138 109.649 424.023 106.779 418.097 103.847L400.344 104.804L376.859 106.046C383.243 108.854 389.819 111.641 396.585 114.408L396.639 114.458ZM441.516 112.209L455.876 111.488C611.376 103.561 772.18 95.3361 933.693 109.376C983.38 113.702 1032.2 120.02 1079.14 128.2C1076.03 127.392 1072.94 126.584 1069.79 125.789C1014.7 115.075 956.542 106.972 897.069 101.722C736.98 87.6328 577.66 95.2243 422.918 103.574C428.901 106.469 435.085 109.339 441.392 112.159L441.516 112.209ZM897.285 101.176C952.741 106.079 1007.07 113.457 1058.86 123.118L1051.39 121.316C991.068 108.776 926.732 99.3733 860.704 93.4475C706.941 79.7182 553.882 85.8188 404.805 94.0812C410.388 97.1294 416.126 100.12 422.017 103.052C576.837 94.6279 736.595 86.9867 897.161 101.126L897.285 101.176ZM1077.76 127.33C1080.14 127.939 1082.56 128.572 1084.89 129.169L1093.54 130.747C1091.65 130.287 1089.68 129.827 1087.82 129.38C1084.42 128.684 1081.06 128.001 1077.76 127.33ZM1115.24 135.58L1121.07 137.12L1128.62 138.487L1123.64 137.319L1115.24 135.58ZM1152.53 143.78L1157.5 145.023L1163.83 146.141L1159.98 145.246L1152.53 143.78ZM1190.13 151.968L1194.02 152.962L1199.75 153.981C1198.78 153.745 1197.75 153.521 1196.75 153.285L1190.13 151.968ZM1265.59 168.294L1267.86 168.903L1271.61 169.512L1270.37 169.226L1265.59 168.294ZM1542.72 225.734C1541.05 225.498 1539.38 225.249 1537.71 225.038C1536.05 224.827 1534.02 224.566 1532.24 224.342L1540.81 226.616L1550.99 227.697C1548.29 227.051 1545.5 226.38 1542.76 225.734H1542.72ZM1521.6 222.975C1517.47 222.466 1513.3 221.969 1509.15 221.484C1512.61 222.466 1516.02 223.472 1519.46 224.479C1523.65 224.876 1527.85 225.286 1532.03 225.721C1528.61 224.789 1525.11 223.882 1521.63 222.975H1521.6ZM1500.58 220.49C1495.99 219.969 1491.37 219.459 1486.7 218.962C1490.69 220.205 1494.63 221.335 1498.61 222.553L1512.45 223.795C1508.47 222.665 1504.54 221.571 1500.61 220.478L1500.58 220.49ZM1479.95 218.229C1474.83 217.695 1469.6 217.185 1464.42 216.676C1468.44 218.018 1472.71 219.36 1476.79 220.739C1482.01 221.149 1487.2 221.571 1492.31 221.981C1488.25 220.726 1484.15 219.459 1479.98 218.217L1479.95 218.229ZM1458.71 216.104C1453.43 215.607 1448.04 215.123 1442.69 214.651C1446.76 216.117 1451.16 217.608 1455.38 219.099C1460.84 219.496 1466.23 219.894 1471.75 220.341C1467.61 218.888 1463.11 217.496 1458.74 216.092L1458.71 216.104ZM1437.7 214.191C1432.1 213.706 1426.47 213.247 1420.81 212.799C1425.18 214.39 1429.54 215.98 1433.89 217.608C1439.55 217.981 1445.21 218.353 1450.85 218.751C1446.61 217.223 1442.24 215.694 1437.7 214.191ZM1416.71 212.464C1410.95 212.017 1405.12 211.582 1399.29 211.221C1403.69 212.878 1408.06 214.576 1412.4 216.316C1418.33 216.664 1424.24 217.024 1430.08 217.397C1425.78 215.707 1421.3 214.079 1416.82 212.464H1416.71ZM1374.73 209.519C1373.14 209.42 1371.62 209.308 1370.04 209.221C1365.47 208.935 1360.83 208.674 1356.24 208.426C1360.66 210.281 1365.04 212.145 1369.36 214.017C1375.63 214.315 1381.87 214.638 1388.14 214.949C1383.79 213.122 1379.31 211.321 1374.83 209.519H1374.73ZM1353.65 208.277C1347.39 207.929 1341.09 207.618 1334.81 207.308C1339.15 209.221 1343.49 211.147 1347.83 213.085C1354.19 213.342 1360.55 213.619 1366.93 213.918C1362.66 212.029 1358.22 210.141 1353.75 208.277H1353.65ZM1332.67 207.208C1326.26 206.91 1319.82 206.624 1313.42 206.363C1317.68 208.314 1321.94 210.29 1326.2 212.265C1332.73 212.501 1339.22 212.725 1345.76 212.998C1341.54 211.048 1337.3 209.134 1332.76 207.171L1332.67 207.208ZM1311.6 206.289C1305.07 206.016 1298.54 205.767 1292.01 205.543C1296.27 207.519 1300.33 209.519 1304.43 211.52C1311.09 211.731 1317.76 211.967 1324.39 212.203C1320.12 210.215 1315.86 208.252 1311.6 206.289ZM1290.51 205.494C1226.06 203.232 1161.46 202.624 1098.35 202.027C1053.8 201.605 1007.73 201.17 962.505 200.164C905.775 198.971 848.853 196.619 792.027 193.119L796.982 193.665C870.456 199.519 944.368 203.407 1018.05 205.295C1062.27 206.537 1107.42 207.333 1151.08 208.091C1201.01 208.973 1251.96 209.867 1302.97 211.47C1298.94 209.47 1294.81 207.469 1290.62 205.494H1290.51ZM599.002 174.432L593.805 173.711L585.598 173.214C586.815 173.363 588.058 173.488 589.27 173.624L599.002 174.432ZM534.685 168.331L527.922 167.375C525.805 167.263 523.713 167.126 521.626 167.002L531.205 168.058L534.685 168.331ZM473.898 162.541L463.753 161.2L452.966 160.578C456.859 161.013 460.716 161.448 464.656 161.821L473.898 162.541ZM409.473 156.528C405.763 156.018 401.732 155.497 397.872 154.962L385.619 154.279L398.095 155.646L409.473 156.528ZM344.486 150.514C340.119 149.943 335.788 149.371 331.482 148.775C326.781 148.526 322.114 148.278 317.474 148.005C322.178 148.539 326.907 149.048 331.673 149.558L344.486 150.514ZM279.928 144.613C275.01 143.979 270.172 143.37 265.126 142.674C259.676 142.401 254.362 142.115 248.793 141.805C254.078 142.389 259.359 142.96 264.706 143.519C270.053 144.078 275.158 144.277 280.038 144.625L279.928 144.613ZM213.456 138.674C208.168 137.99 202.915 137.307 197.688 136.599C191.806 136.3 185.925 136.002 180.105 135.679C185.93 136.325 191.806 136.951 197.733 137.555C203.015 137.945 208.293 138.322 213.566 138.686L213.456 138.674ZM187.925 135.244C180.67 134.225 173.509 133.178 166.442 132.101C158.246 131.819 150.094 131.5 141.986 131.144C149.598 132.113 157.282 133.053 165.036 133.965C172.715 134.428 180.381 134.859 188.036 135.257L187.925 135.244ZM129.896 130.61C123.375 130.295 116.908 129.968 110.496 129.628C116.929 130.332 123.386 131.007 129.868 131.654C135.655 132.076 141.433 132.474 147.291 132.896C141.593 132.151 135.866 131.393 130.111 130.622L129.896 130.61ZM120.949 129.367C113.3 128.299 105.721 127.201 98.214 126.075C89.6291 125.789 81.0747 125.491 72.607 125.143C80.613 126.162 88.7103 127.143 96.8991 128.088C105.107 128.585 113.105 128.995 121.175 129.405L120.949 129.367ZM61.2291 124.634C54.0723 124.311 47.2718 124 40.3517 123.652C47.3633 124.398 54.4141 125.122 61.5038 125.826C67.8588 126.261 74.2489 126.696 80.6507 127.069C74.3832 126.307 67.9844 125.507 61.4543 124.671L61.2291 124.634ZM53.2279 123.565C45.3376 122.48 37.4948 121.366 29.6999 120.223C20.5522 119.937 11.4959 119.614 2.46074 119.254C10.7294 120.285 19.0191 121.279 27.4307 122.223C36.1868 122.683 44.7859 123.192 53.4529 123.602L53.2279 123.565ZM-7.14897 118.956C-14.9437 118.62 -22.6469 118.247 -30.3197 117.862C-22.9939 118.632 -15.6821 119.365 -8.37972 120.074C-1.15711 120.571 6.06544 121.068 13.4803 121.515C6.46866 120.645 -0.362429 119.788 -7.14897 118.956ZM-14.55 117.986C-22.8686 116.885 -31.1356 115.733 -39.3512 114.532C-48.8811 114.259 -58.35 113.961 -67.8378 113.613C-59.0275 114.681 -50.1211 115.725 -41.1326 116.707C-32.3506 117.141 -23.3671 117.552 -14.6344 117.949L-14.55 117.986ZM-77.124 113.24C-85.2423 112.917 -93.2878 112.569 -101.261 112.196C-93.5738 112.992 -85.8915 113.774 -78.0872 114.507C-70.5661 114.988 -62.9824 115.448 -55.3362 115.887C-62.7395 115.004 -70.0067 114.11 -77.2083 113.203L-77.124 113.24ZM-74.3781 112.78C-64.4143 113.178 -54.4037 113.513 -44.2969 113.824C-49.259 113.103 -54.1087 112.37 -58.8457 111.625C-62.8441 111.004 -66.7719 110.382 -70.7539 109.712C-81.3953 109.538 -92.0273 109.326 -102.65 109.078C-93.3402 110.258 -83.9717 111.501 -74.4274 112.743L-74.3781 112.78ZM-58.1214 110.842C-50.9854 111.948 -43.7578 113.016 -36.5045 114.06C-26.0507 114.358 -15.5336 114.607 -4.95309 114.806L-5.7786 114.669C-14.378 113.228 -22.9445 111.687 -31.4501 110.122C-42.5535 110.059 -53.6006 109.96 -64.6008 109.798C-62.5137 110.109 -60.3726 110.469 -58.2057 110.805L-58.1214 110.842ZM-4.89718 113.837C-2.64125 114.222 -0.359496 114.582 1.8918 114.955C12.7607 115.141 23.7515 115.278 34.7634 115.377C25.899 113.7 17.1212 111.973 8.42085 110.171C-3.0811 110.171 -14.5127 110.171 -25.8387 110.171C-18.9473 111.405 -11.9949 112.615 -4.98157 113.799L-4.89718 113.837ZM40.682 115.402C51.9003 115.489 63.2006 115.514 74.5571 115.501C65.913 113.663 57.3205 111.774 48.8757 109.811C37.0698 109.968 25.3303 110.084 13.6572 110.159C22.4888 111.936 31.4471 113.675 40.5977 115.365L40.682 115.402ZM80.0349 115.477C91.572 115.477 103.172 115.365 114.839 115.241C106.415 113.24 98.1036 111.165 89.9096 109.028C77.8074 109.301 65.7616 109.538 53.8329 109.712C62.4099 111.683 71.1157 113.592 79.9505 115.439L80.0349 115.477ZM120.091 115.178C131.924 115.029 143.812 114.843 155.783 114.594C149.217 112.855 142.716 111.103 136.192 109.289L131.37 107.885C118.998 108.283 106.702 108.631 94.4799 108.929C102.941 111.029 111.402 113.128 119.936 115.141L120.091 115.178ZM138.347 108.382C145.713 110.469 153.271 112.507 160.916 114.495C172.99 114.238 185.148 113.928 197.392 113.563C194.939 112.843 192.455 112.134 190.072 111.414C184.592 109.757 179.195 108.071 173.881 106.357C161.248 106.87 148.679 107.334 136.173 107.748L138.347 108.382ZM192.253 110.482C195.548 111.476 198.939 112.445 202.3 113.427C213.771 113.066 225.263 112.669 236.828 112.184L239.429 112.085C231.807 109.6 224.293 107.028 216.966 104.394C205.083 104.965 193.229 105.524 181.387 106.021L178.409 106.146C182.923 107.603 187.462 109.036 192.028 110.445L192.253 110.482ZM244.187 111.923C256.868 111.414 269.54 110.879 282.259 110.283C275.043 107.661 267.969 104.953 261.048 102.182C247.881 102.894 234.713 103.574 221.544 104.22C228.884 106.829 236.404 109.384 244.102 111.886L244.187 111.923ZM286.958 110.059C299.975 109.446 312.985 108.813 325.986 108.158C319.211 105.4 312.583 102.567 306.113 99.6847C292.662 100.455 279.146 101.205 265.562 101.934C272.474 104.679 279.582 107.388 286.838 110.022L286.958 110.059ZM330.782 107.91C344.19 107.214 357.56 106.51 370.891 105.798C364.536 102.94 358.344 100.02 352.317 97.0383L343.847 97.5229L310.692 99.4238C317.192 102.29 323.86 105.106 330.697 107.873L330.782 107.91ZM375.612 105.537L399.741 104.232L416.976 103.3C411.178 100.368 405.476 97.3779 399.869 94.3297L356.875 96.8146C362.968 99.722 369.242 102.642 375.633 105.5L375.612 105.537ZM824.157 85.1602C677.102 71.8658 530.755 76.4629 387.698 84.3651C392.895 87.5085 398.31 90.5775 403.817 93.6091C553.166 85.3218 706.533 79.1963 860.837 92.9629C919.919 98.2646 977.681 106.352 1032.46 116.992C967.17 102.51 896.737 91.7323 824.178 85.1229L824.157 85.1602ZM1610.36 236.99L1605.55 235.996L1599.14 235.139L1604.15 236.382L1610.36 236.99ZM1592.65 235.164C1589.87 234.505 1587.11 233.921 1584.32 233.238C1580.9 232.799 1577.47 232.385 1574.04 231.996L1582.66 234.245C1586.07 234.505 1589.32 234.829 1592.65 235.164ZM1573.65 233.387C1570.06 232.455 1566.48 231.548 1562.9 230.641L1550.34 229.225C1553.92 230.231 1557.46 231.225 1561.01 232.244C1565.23 232.604 1569.42 233.002 1573.65 233.387ZM1553.79 231.648C1549.84 230.517 1545.91 229.411 1541.7 228.318C1537.04 227.821 1532.35 227.324 1527.64 226.852C1531.62 228.094 1535.58 229.25 1539.55 230.455C1544.21 230.778 1548.99 231.238 1553.79 231.648ZM1533.14 229.958C1528.97 228.716 1524.74 227.473 1520.48 226.168L1505.38 224.74C1509.63 226.106 1513.87 227.461 1518.08 228.84C1523.11 229.2 1528.12 229.536 1533.14 229.958ZM1512.65 228.442C1508.28 227.013 1503.89 225.622 1499.49 224.218C1494.03 223.746 1488.58 223.274 1482.99 222.814C1487.38 224.305 1491.78 225.796 1496.12 227.312C1501.64 227.684 1507.16 228.045 1512.65 228.442ZM1491.48 227.051C1486.98 225.493 1482.47 223.957 1477.96 222.441C1472.37 221.981 1466.75 221.546 1461.1 221.124C1465.56 222.731 1469.96 224.342 1474.33 225.957C1480.04 226.268 1485.77 226.641 1491.48 227.051ZM1470.18 225.684C1465.68 224.031 1461.19 222.391 1456.62 220.714C1450.8 220.292 1444.91 219.882 1439.02 219.472C1443.47 221.128 1447.91 222.83 1452.35 224.578C1458.37 224.976 1464.28 225.336 1470.18 225.684ZM1448.81 224.441C1444.31 222.702 1439.79 220.975 1435.25 219.26C1429.26 218.863 1423.28 218.49 1417.24 218.13C1421.7 219.894 1426.11 221.696 1430.51 223.485L1448.81 224.441ZM1427.29 223.323C1422.84 221.509 1418.39 219.708 1413.89 217.931C1411.41 217.782 1408.99 217.62 1406.51 217.484C1402.91 217.272 1399.05 217.098 1395.35 216.9C1399.56 218.738 1404.14 220.627 1408.49 222.441C1414.83 222.739 1421.09 223.025 1427.36 223.323H1427.29ZM1405.8 222.317C1401.58 220.441 1397.01 218.589 1392.58 216.751C1386.23 216.415 1379.91 216.067 1373.57 215.769C1377.9 217.658 1382.2 219.558 1386.49 221.472C1392.93 221.758 1399.38 222.081 1405.81 222.329L1405.8 222.317ZM1384.09 221.373C1379.85 219.459 1375.62 217.558 1371.14 215.657C1364.69 215.359 1358.23 215.081 1351.76 214.825C1355.98 216.738 1360.22 218.656 1364.48 220.577C1370.91 220.838 1377.52 221.112 1384.13 221.385L1384.09 221.373ZM1362.27 220.503C1358.03 218.565 1353.79 216.651 1349.54 214.725C1342.97 214.464 1336.4 214.203 1329.84 213.967C1333.92 215.897 1337.97 217.827 1341.98 219.757C1348.83 220.006 1355.57 220.254 1362.28 220.515L1362.27 220.503ZM1340.34 219.695C1336.3 217.757 1332.27 215.831 1328.16 213.905C1321.45 213.657 1314.71 213.408 1308.02 213.197C1311.96 215.119 1315.88 217.053 1319.78 218.999L1340.34 219.695ZM1073.99 211.93C1117.86 213.446 1162.62 214.626 1205.93 215.769C1243.13 216.751 1280.54 217.732 1318.32 218.962C1314.42 217.016 1310.5 215.077 1306.56 213.147C1254.54 211.482 1202.52 210.563 1151.57 209.681C1107.88 208.911 1062.7 208.128 1018.36 206.873C965.033 205.365 914.963 203.179 868.154 200.313C936.547 205.813 1005.32 209.699 1073.99 211.942L1073.99 211.93ZM163.16 134.772L162.058 134.648L160.794 134.561L163.16 134.772ZM98.2269 129.181L94.0738 128.709L89.4329 128.436L98.2269 129.181ZM32.4775 123.664L24.9476 122.82L17.2958 122.397C22.3494 122.832 27.3982 123.254 32.4775 123.664ZM-35.3355 118.086L-43.9933 117.142C-47.5858 116.943 -51.1877 116.719 -54.7849 116.508C-48.4183 117.067 -41.8944 117.576 -35.3355 118.086ZM-100.773 112.929L-114.116 111.501C-118.637 111.265 -123.154 111.041 -127.644 110.792C-118.759 111.501 -109.78 112.271 -100.773 112.929ZM-170.035 107.612C-175.077 107.115 -180.118 106.618 -185.099 106.096L-201.303 105.288C-190.969 106.108 -180.543 106.891 -170.035 107.612ZM-275.335 100.008C-263.164 100.94 -250.902 101.834 -238.502 102.629C-244.371 102.083 -250.185 101.499 -255.998 100.915C-262.462 100.625 -268.908 100.323 -275.335 100.008ZM-246.311 101.325C-237.475 102.182 -228.587 102.99 -219.625 103.81C-211.065 104.307 -202.447 104.775 -193.769 105.214C-201.986 104.319 -210.137 103.412 -218.237 102.455H-218.553C-227.844 102.07 -237.09 101.71 -246.311 101.325ZM-210.644 102.629C-201.226 103.723 -191.687 104.766 -182.095 105.76C-172.429 106.208 -162.694 106.622 -152.889 107.003C-156.985 106.493 -161.108 106.009 -165.144 105.475C-170.066 104.829 -174.963 104.158 -179.969 103.474C-190.189 103.238 -200.427 102.952 -210.644 102.629ZM-163.287 103.872L-173.502 103.648C-170.538 104.046 -167.599 104.468 -164.626 104.891C-157.966 105.76 -151.184 106.58 -144.447 107.376C-134.249 107.74 -123.974 108.063 -113.62 108.345C-122.7 107.028 -131.768 105.649 -140.75 104.22C-148.321 104.104 -155.838 103.975 -163.301 103.835L-163.287 103.872ZM-135.169 104.282C-127.278 105.524 -119.375 106.705 -111.416 107.848L-106.81 108.494C-95.967 108.767 -85.084 108.991 -74.1612 109.165C-83.2366 107.674 -92.2534 106.121 -101.212 104.506C-112.627 104.456 -123.951 104.369 -135.183 104.245L-135.169 104.282ZM-96.1021 104.53C-86.8296 106.17 -77.3039 107.736 -68.0033 109.264C-56.8273 109.426 -45.5598 109.55 -34.2454 109.612C-43.2858 107.935 -52.2699 106.22 -61.1062 104.431C-72.8591 104.481 -84.529 104.501 -96.1161 104.493L-96.1021 104.53ZM-56.1959 104.394C-47.0923 106.208 -37.9182 107.96 -28.6739 109.649C-17.1852 109.707 -5.61297 109.707 6.04292 109.649C-2.85204 107.798 -11.5806 105.922 -20.2153 103.922C-32.2667 104.112 -44.2649 104.257 -56.21 104.356L-56.1959 104.394ZM-15.5911 103.872C-6.75003 105.86 2.14735 107.811 11.2229 109.674C23.018 109.612 34.8693 109.513 46.7675 109.351C40.7515 107.951 34.7917 106.514 28.8882 105.04C26.3274 104.406 23.8111 103.797 21.1165 103.089C8.84155 103.371 -3.39905 103.619 -15.6052 103.835L-15.5911 103.872ZM25.682 102.977C27.2744 103.375 28.8409 103.797 30.4778 104.22C37.4616 105.947 44.572 107.637 51.7387 109.289C63.7729 109.115 75.8923 108.887 88.0968 108.606C86.2652 108.134 84.4032 107.674 82.6021 107.189C76.0756 105.462 69.6663 103.673 63.318 101.859C50.6553 102.232 38.1336 102.605 25.6679 102.94L25.682 102.977ZM67.6678 101.735C73.1789 103.288 78.7556 104.829 84.3841 106.32C87.1631 107.065 90.0335 107.773 92.8431 108.506C105.165 108.225 117.534 107.881 129.949 107.475C121.851 105.127 113.875 102.729 106.113 100.244C93.1922 100.741 80.3678 101.213 67.6396 101.66L67.6678 101.735ZM125.517 99.3741L110.334 100.058C118.307 102.542 126.257 104.965 134.571 107.326C147.127 106.92 159.757 106.46 172.46 105.947C164.662 103.462 156.953 100.84 149.442 98.1814C141.443 98.5168 133.438 98.9268 125.489 99.2996L125.517 99.3741ZM153.759 97.9701C161.356 100.637 169.104 103.238 177.002 105.773L181.021 105.611C192.551 105.127 204.128 104.58 215.595 104.021C208.219 101.35 201.031 98.6162 193.955 95.8082C180.577 96.5206 167.161 97.1957 153.707 97.8335L153.759 97.9701ZM198.368 95.5722C205.482 98.3884 212.757 101.134 220.193 103.81C233.432 103.164 246.647 102.484 259.838 101.772C252.908 98.9766 246.161 96.1065 239.535 93.1866C225.827 93.957 212.095 94.7273 198.34 95.4976L198.368 95.5722ZM243.88 92.8636C250.546 95.7958 257.373 98.6618 264.364 101.462C277.991 100.724 291.541 99.9705 305.015 99.2002C298.54 96.3052 292.247 93.3357 286.077 90.3165L243.88 92.8636ZM290.511 90.0432C296.686 93.0748 303.08 96.0319 309.595 98.9393L343.368 97.001L351.324 96.5537C345.304 93.5594 339.415 90.5402 333.809 87.434C319.29 88.2913 304.871 89.1362 290.511 90.0432Z" fill="white" fill-opacity="0.1"/>
</svg>
