<svg width="25" height="25" viewBox="0 0 25 25" fill="none" xmlns="http://www.w3.org/2000/svg">
<g clip-path="url(#clip0_60_1110)">
<path d="M19.3916 21.5859L19.6386 21.6044L20.3135 18.7857C20.2213 18.8312 20.1268 18.8771 20.0297 18.9219L19.3916 21.5851" fill="#243438"/>
<path d="M18.2229 19.5941L18.2222 19.5919L18.2275 19.6271H17.6485L17.4907 20.2861C17.8098 20.4876 18.1482 20.9011 18.4938 21.6276L19.3641 21.6944L19.3903 21.5843L20.0288 18.9211C19.4449 19.1915 18.8412 19.4162 18.2229 19.5941Z" fill="#969492"/>
<path d="M10.8872 23.8659L11.2093 23.8895C11.4472 23.4456 11.8857 22.7438 12.451 22.372C11.7696 22.5582 11.2165 23.3075 10.8872 23.8659Z" fill="#243438"/>
<path d="M18.2303 19.6283L18.225 19.593L17.9082 17.5323L17.8972 17.4552C17.871 17.4401 17.8437 17.426 17.8168 17.4116C14.8785 15.7651 11.0206 16.5626 9.17949 17.1024L6.44722 19.513L6.35352 19.6283H17.2469L16.1342 24.2654L16.5322 24.2962L17.4932 20.2877L17.651 19.6287L18.2303 19.6283Z" fill="#243438"/>
<path d="M8.23877 19.6282L9.79308 24.029L10.7544 24.103C10.7939 24.0298 10.8386 23.9493 10.888 23.8655C11.2173 23.3067 11.7704 22.5578 12.4521 22.3715C13.1547 22.1799 13.9935 22.5851 14.8631 24.416L16.0759 24.5086L16.1332 24.265L17.2459 19.6279L8.23877 19.6282Z" fill="#B3B3B3"/>
<path d="M18.7556 10.6211C18.6959 10.6327 18.6358 10.6414 18.5754 10.6473L18.982 11.9747C19.1626 12.0347 19.3117 11.9918 19.4263 11.9186C19.6 11.8086 19.6938 11.6272 19.6938 11.6272L19.3679 10.5088C19.3679 10.5088 14.9018 10.4197 13.5972 10.6192H18.7556V10.6211Z" fill="#243438"/>
<path d="M18.1662 12.32C18.3513 12.32 19.2823 12.1948 19.4269 11.9186C19.3623 11.9619 19.2885 11.9895 19.2114 11.9992C19.1343 12.009 19.0559 12.0006 18.9826 11.9747L18.5759 10.6473C18.5941 10.6473 18.6643 10.637 18.7561 10.6211V10.6188H13.5822L13.9874 12.128L18.1681 12.32M5.86528 0.677646C6.42372 1.41174 7.39037 3.48503 8.82518 9.20148L12.1508 8.24128C12.1508 8.24128 11.054 2.93759 9.43711 1.30096C9.91057 1.3757 10.2683 1.47168 10.5392 1.57677C8.18365 0.204942 4.93087 0.21253 3.99268 0.247812C4.28859 0.262228 4.6084 0.377938 4.94795 0.642743C5.11449 0.610116 5.45024 0.629844 5.86528 0.677646ZM22.5795 14.8174C20.9436 16.6763 18.0793 17.3497 17.8153 17.4127C17.8149 17.4442 17.909 17.5011 17.9067 17.5334L18.2235 19.5941L18.2242 19.5964C18.9433 19.389 19.6424 19.118 20.3135 18.7868C21.9387 17.9825 22.7904 17.1111 22.7904 17.1111C23.1554 15.4889 22.85 14.976 22.5795 14.8159" fill="#34484C"/>
<path d="M17.4606 14.8773C17.2246 15.3261 15.7109 15.5299 15.4089 15.5299L12.9441 15.4164L9.37116 16.9339L9.1792 17.1031C11.0203 16.5633 14.8774 15.7662 17.8165 17.4123C17.8434 17.423 17.8707 17.4321 17.8969 17.4423L17.917 17.437C18.1807 17.374 20.9444 16.6745 22.5807 14.817L22.6144 14.7779C22.6144 14.7779 20.2707 14.1645 17.8009 14.0746L17.8969 14.4035C17.8969 14.4035 17.7436 14.6979 17.4606 14.8773Z" fill="#7F7F7E"/>
<path d="M12.1491 8.23938L8.82352 9.19958C7.38796 3.48237 6.42206 1.40945 5.86362 0.67574C5.44858 0.627938 5.11284 0.60821 4.94629 0.640457C4.99978 0.68143 5.05289 0.726576 5.10715 0.775895L8.25863 12.7221C9.54661 12.5745 12.0448 12.5438 14.0999 12.5476L13.9857 12.1257L13.5805 10.6166L11.3642 2.37459C11.3642 2.37459 11.4518 1.92806 10.5372 1.57448C10.2663 1.46978 9.90854 1.37379 9.43507 1.29868C11.0524 2.93569 12.1491 8.23938 12.1491 8.23938ZM8.9214 15.232L9.3702 16.9347L12.9432 15.4172L8.9214 15.232Z" fill="#B3B3B3"/>
<path d="M9.37031 16.9347L8.92151 15.2332L6.79169 15.1349C6.49008 15.1349 6.21617 14.9657 6.21617 14.6842V13.9152C6.21617 13.6333 6.46087 13.3966 7.72078 12.804H7.74696C7.88316 12.7748 8.05653 12.7486 8.26026 12.7255L5.10877 0.778899C5.05708 0.731517 5.00341 0.686331 4.94792 0.643461C4.60838 0.378656 4.28856 0.264085 3.99265 0.24853C3.90273 0.243978 3.8151 0.24853 3.73012 0.261429H3.72936C2.6083 0.433666 1.89355 1.99822 1.89355 1.99822L6.35237 19.5975L6.44608 19.5148L9.17835 17.1042L9.37031 16.9354" fill="#969492"/>
<path d="M8.26037 12.7244C8.05702 12.7475 7.88365 12.7737 7.74707 12.8029H16.1313C16.1036 12.8033 16.085 12.809 16.0755 12.809L16.7368 14.9669C17.03 15.0644 17.2728 14.9953 17.4595 14.8773C17.7425 14.6979 17.8954 14.4039 17.8954 14.4039L17.7994 14.0749L17.3647 12.5821C17.3647 12.5821 15.9033 12.5529 14.1005 12.5499C12.0462 12.5495 9.54797 12.5768 8.25999 12.7244" fill="#243438"/>
<path d="M15.4078 15.531C15.7098 15.531 17.2235 15.3273 17.4595 14.8785C17.2729 14.9968 17.0301 15.0655 16.7368 14.968L16.0756 12.8101C16.085 12.8101 16.1036 12.8078 16.1313 12.804H7.72092C6.46101 13.3966 6.21631 13.6334 6.21631 13.9152V14.6842C6.21631 14.9657 6.49022 15.1349 6.79182 15.1349L8.92164 15.2332L12.9434 15.4172L15.4078 15.531Z" fill="#34484C"/>
</g>
<defs>
<clipPath id="clip0_60_1110">
<rect width="24.2801" height="24.2801" fill="white" transform="translate(0.282227 0.238327)"/>
</clipPath>
</defs>
</svg>
