<svg width="140" height="77" viewBox="0 0 140 77" fill="none" xmlns="http://www.w3.org/2000/svg">
<path d="M40.1379 37.2467C40.4723 37.191 40.7231 37.3024 40.8903 37.5811C41.0854 37.8319 41.1272 38.1106 41.0157 38.4171C40.9321 38.6958 40.7231 38.863 40.3887 38.9187C39.5248 39.0302 38.5634 39.1835 37.5045 39.3785C36.0554 44.3388 33.7842 48.909 30.691 53.0891C27.5978 57.2691 23.8636 60.7525 19.4885 63.5392C18.5967 64.1244 17.8861 64.5703 17.3566 64.8768C16.8272 65.2112 16.019 65.671 14.9322 66.2562C13.8733 66.8693 12.9258 67.3291 12.0898 67.6356C11.2538 67.9422 10.3342 68.2348 9.33097 68.5134C8.35562 68.82 7.42208 68.9454 6.53034 68.8896C5.63859 68.8618 4.83045 68.6667 4.10591 68.3044C3.0191 67.775 2.28062 67.0365 1.89049 66.089C1.50035 65.1694 1.44462 64.1801 1.72329 63.1212C1.97409 62.0622 2.33636 61.059 2.8101 60.1115C3.25597 59.1641 3.79937 58.2863 4.44031 57.4781C8.25809 52.4899 12.9258 48.3238 18.4435 44.9798C23.9611 41.6079 29.8689 39.2671 36.1668 37.9573C36.8078 35.5608 37.2537 33.1642 37.5045 30.7676C37.7553 28.3432 37.7692 25.877 37.5463 23.369C37.3512 20.8609 36.9053 18.5062 36.2086 16.3047C35.512 14.1032 34.453 12.041 33.0318 10.1182C31.6385 8.1954 29.9525 6.60698 27.974 5.35297C26.4691 4.40549 24.8389 3.69489 23.0833 3.22115C21.3556 2.71954 19.6139 2.46874 17.8583 2.46874C16.1305 2.46874 14.4028 2.77528 12.675 3.38835C10.9751 3.97356 9.44243 4.83743 8.07695 5.97998C5.40172 8.2372 3.64611 11.0936 2.8101 14.5491C1.97409 18.0046 2.23882 21.3207 3.60431 24.4976C3.74364 24.832 3.71577 25.1246 3.5207 25.3754C3.32564 25.5983 3.07483 25.7098 2.7683 25.7098C2.46176 25.6819 2.23882 25.5147 2.09949 25.2082C1.23561 23.2296 0.761876 21.1953 0.678275 19.1053C0.594674 17.0153 0.845477 15.0646 1.43068 13.2533C2.01589 11.414 2.90763 9.68628 4.10591 8.07C5.30419 6.42585 6.6836 5.04643 8.24415 3.93175C9.83257 2.81708 11.63 1.98107 13.6364 1.42373C15.6428 0.838524 17.705 0.643455 19.8229 0.838523C22.526 1.08933 24.9783 1.79993 27.1798 2.97034C29.4091 4.14076 31.2623 5.61771 32.7392 7.40119C34.2162 9.15681 35.4562 11.1772 36.4594 13.4623C37.4905 15.7473 38.2151 18.116 38.6331 20.5683C39.0789 22.9928 39.2879 25.4729 39.2601 28.0088C39.2043 31.1856 38.7863 34.3764 38.0061 37.5811C38.8421 37.4418 39.5527 37.3303 40.1379 37.2467ZM33.5334 45.2724C34.3416 43.6004 35.0522 41.7751 35.6652 39.7965C29.5345 41.162 23.78 43.5028 18.4017 46.819C13.0512 50.1073 8.71789 54.1619 5.40172 58.9829C3.98051 60.9894 3.2699 62.5081 3.2699 63.5392C3.2699 64.2916 3.3953 64.9186 3.64611 65.4202C3.89691 65.9497 4.18951 66.3259 4.52392 66.5488C4.85832 66.7996 5.29026 66.9529 5.81973 67.0086C6.37707 67.0643 6.87867 67.0643 7.32454 67.0086C7.77042 66.9529 8.31382 66.8275 8.95476 66.6324C9.5957 66.4652 10.0694 66.3119 10.376 66.1726C10.6825 66.0611 11.0866 65.9079 11.5882 65.7128C11.6718 65.6849 11.7415 65.6571 11.7972 65.6292C14.8904 64.3752 17.8025 62.7728 20.5335 60.8221C26.2462 56.67 30.5795 51.4867 33.5334 45.2724ZM45.9766 38.6679C47.2863 39.0023 48.2059 39.8105 48.7354 41.0923C49.2649 42.3464 49.2927 43.6143 48.819 44.8962C48.401 46.1223 47.774 47.2509 46.938 48.282C46.102 49.3131 45.1545 49.8565 44.0955 49.9122C43.0087 49.968 42.2145 49.5918 41.7129 48.7836C41.2392 47.9755 41.0998 47.0419 41.2949 45.983C41.685 43.8094 42.8137 41.6357 44.6807 39.4621C44.7365 39.4064 44.8061 39.3507 44.8897 39.2949C45.0848 38.7655 45.4471 38.5565 45.9766 38.6679ZM43.2177 47.9894C43.7472 48.4632 44.5414 48.1427 45.6003 47.028C46.8265 45.7461 47.4814 44.4085 47.565 43.0152C47.6486 41.8169 47.133 40.9669 46.0184 40.4653C45.7954 40.7161 45.5585 41.0227 45.3077 41.3849C45.0569 41.7193 44.7643 42.1374 44.4299 42.639C44.0955 43.1406 43.8029 43.6422 43.5521 44.1438C43.3013 44.6454 43.0923 45.147 42.9251 45.6486C42.7579 46.1223 42.6883 46.5682 42.7161 46.9862C42.7719 47.4042 42.9391 47.7386 43.2177 47.9894ZM63.0197 39.1277C63.2984 38.9327 63.591 38.9048 63.8975 39.0441C64.2041 39.1835 64.3713 39.3925 64.3991 39.6711C64.4549 39.9498 64.3573 40.2006 64.1065 40.4235C62.0722 41.8448 60.2191 43.2242 58.5471 44.5618C59.2995 45.0355 59.9125 45.5093 60.3863 45.983C60.8879 46.4289 61.3198 46.9444 61.6821 47.5296C62.0722 48.1148 62.2116 48.7558 62.1001 49.4524C61.9886 50.1491 61.6403 50.8458 61.0551 51.5425C60.4699 52.2391 59.7035 52.8801 58.7561 53.4653C57.8086 54.0783 56.8054 54.5381 55.7464 54.8447C54.7154 55.1791 53.7261 55.1652 52.7786 54.8029C51.8311 54.4406 51.1484 53.7021 50.7304 52.5875C50.0894 50.8318 51.023 48.8115 53.531 46.5264C54.1441 45.9969 54.8408 45.3978 55.621 44.729C55.5653 44.7011 55.203 44.506 54.5342 44.1438C53.8654 43.7815 53.4195 43.5307 53.1966 43.3914C52.9737 43.252 52.6114 43.0152 52.1098 42.6808C51.6361 42.3464 51.2598 42.0259 50.9812 41.7193C50.7025 41.4128 50.4517 41.0784 50.2288 40.7161C49.3649 39.2113 49.8386 37.5254 51.65 35.6583C53.2105 34.042 55.008 32.997 57.0422 32.5233C59.2716 31.9938 60.6789 32.4815 61.2641 33.9863C61.3477 34.2371 61.4174 34.5157 61.4731 34.8223C61.501 35.1567 61.3895 35.4214 61.1387 35.6165C60.8879 35.7837 60.6092 35.8255 60.3027 35.7419C59.9961 35.6304 59.8289 35.4075 59.8011 35.0731C59.5781 33.5404 58.1709 33.5543 55.5792 35.1149C54.4367 35.7837 53.5728 36.4107 52.9876 36.9959C52.486 37.4975 52.1237 37.9294 51.9008 38.2917C51.7057 38.654 51.65 39.0581 51.7336 39.5039C51.8451 39.9219 52.1516 40.3678 52.6532 40.8415C52.904 41.0645 53.1966 41.3013 53.531 41.5521C53.8654 41.7751 54.1441 41.9562 54.367 42.0956C54.6178 42.2349 54.9662 42.4439 55.412 42.7226C55.8858 42.9734 56.1923 43.1406 56.3316 43.2242C56.4152 43.252 56.5267 43.3217 56.666 43.4332C56.8332 43.5168 56.9586 43.5725 57.0422 43.6004C58.8815 42.1234 60.8739 40.6325 63.0197 39.1277ZM59.2577 50.9572C59.6199 50.5671 59.8847 50.1909 60.0519 49.8286C60.2191 49.4664 60.2748 49.132 60.2191 48.8254C60.1633 48.491 60.0519 48.1845 59.8847 47.9058C59.7453 47.6271 59.5085 47.3485 59.1741 47.0698C58.8675 46.7911 58.561 46.5543 58.2545 46.3592C57.9479 46.1363 57.5856 45.8994 57.1676 45.6486C56.4152 46.2895 55.7046 46.8887 55.0358 47.446C54.9244 47.5575 54.7293 47.7247 54.4506 47.9476C54.1998 48.1706 53.9908 48.3517 53.8236 48.491C53.6564 48.6304 53.4753 48.8254 53.2802 49.0762C53.113 49.2992 52.9737 49.5221 52.8622 49.745C52.2491 51.1105 52.3049 52.0859 53.0294 52.6711C53.7818 53.2563 54.785 53.3817 56.039 53.0473C57.0701 52.7965 58.143 52.0998 59.2577 50.9572ZM79.6899 38.9187C79.9407 38.6679 80.2055 38.6122 80.4841 38.7515C80.7628 38.863 80.93 39.072 80.9857 39.3785C81.0693 39.6572 80.9997 39.9359 80.7767 40.2145C75.0361 46.0945 70.0758 48.5328 65.8958 47.5296C64.4188 47.1952 63.3041 46.5543 62.5517 45.6068C61.7993 44.6314 61.5067 43.5586 61.6739 42.3882C61.8133 41.1899 62.3567 40.0473 63.3041 38.9605C64.0566 38.1524 65.0319 37.4975 66.2302 36.9959C68.0137 36.2714 68.8915 36.7172 68.8636 38.3335C68.8636 38.3614 68.8636 38.3892 68.8636 38.4171C68.8357 39.5039 68.1809 40.535 66.899 41.5103C65.6171 42.4857 64.4606 42.8062 63.4295 42.4718C63.3181 43.7258 63.8475 44.6593 65.018 45.2724C66.1884 45.8855 67.4703 46.0666 68.8636 45.8158C70.8422 45.4535 72.6814 44.6872 74.3813 43.5168C76.109 42.3185 77.8786 40.7858 79.6899 38.9187ZM66.4392 38.6679C66.049 38.6958 65.6171 38.9327 65.1434 39.3785C64.6975 39.8244 64.3074 40.3121 63.973 40.8415C64.5582 41.1202 65.2688 40.7858 66.1048 39.8383C66.6621 39.1974 66.8154 38.8073 66.5646 38.6679C66.5367 38.6679 66.4949 38.6679 66.4392 38.6679ZM89.0202 40.9251C89.3546 40.8694 89.6054 40.9669 89.7726 41.2177C89.9677 41.4685 90.0095 41.7472 89.898 42.0538C89.8144 42.3603 89.6054 42.5414 89.271 42.5972C86.4007 43.043 83.614 43.9348 80.9109 45.2724C80.8273 48.6164 80.7995 52.0162 80.8273 55.4717C81.3011 55.8618 81.6355 56.1544 81.8306 56.3495C84.1714 58.5231 85.6762 62.0762 86.345 67.0086C86.5958 68.8757 86.5261 70.7289 86.136 72.5681C85.5508 75.4384 84.2968 76.0793 82.374 74.4909C81.8166 74.0172 81.3289 73.3623 80.9109 72.5263C80.5208 71.7181 80.2143 70.91 79.9913 70.1018C79.7963 69.2937 79.6291 68.3044 79.4897 67.134C79.3783 65.9636 79.3086 64.9883 79.2807 64.208C79.2529 63.4556 79.225 62.4942 79.1971 61.3238C79.1693 60.1812 79.1553 59.4288 79.1553 59.0665C79.1275 58.4535 79.0996 57.6314 79.0717 56.6003C76.2293 54.4545 72.8853 53.5628 69.0396 53.9251C68.6216 53.9529 68.3429 53.7718 68.2036 53.3817C68.0364 53.0194 68.1061 52.6989 68.4126 52.4203C72.2304 48.7976 75.8392 46.0666 79.2389 44.2274C79.4061 40.6883 79.6569 37.1352 79.9913 33.5683C80.0192 33.206 80.061 32.5511 80.1167 31.6036C80.2003 30.6562 80.27 29.7923 80.3257 29.012C80.3815 28.2039 80.479 27.2564 80.6183 26.1696C80.7577 25.0549 80.9249 24.0656 81.1199 23.2018C81.315 22.3379 81.5937 21.474 81.956 20.6101C82.3182 19.7184 82.7223 19.0078 83.1682 18.4783C83.6419 17.9488 84.2271 17.5587 84.9238 17.3079C85.6205 17.0292 86.3868 16.9735 87.2228 17.1407C87.5572 17.2243 87.7801 17.4194 87.8916 17.7259C88.0031 18.0324 87.9752 18.3111 87.808 18.5619C87.6408 18.8127 87.39 18.8963 87.0556 18.8127C86.3868 18.6734 85.7598 18.8963 85.1746 19.4815C84.6172 20.0667 84.1296 20.9445 83.7116 22.1149C83.3214 23.2854 82.9592 24.6369 82.6248 26.1696C82.3182 27.7023 82.0535 29.4579 81.8306 31.4364C81.6076 33.3871 81.4265 35.3239 81.2871 37.2467C81.1757 39.1695 81.0781 41.2177 80.9945 43.3914C83.5862 42.1652 86.2614 41.3431 89.0202 40.9251ZM84.882 71.1051C85.1049 68.6249 84.868 66.2562 84.1714 63.999C83.4747 61.7696 82.374 59.8468 80.8691 58.2305C80.9249 60.2927 80.9806 61.7278 81.0363 62.536C81.2871 65.7964 81.6355 68.2905 82.0814 70.0182C82.4436 71.3837 82.9313 72.3451 83.5444 72.9025C84.1853 73.4877 84.6033 73.1115 84.7984 71.7739L84.882 71.1051ZM79.0299 54.3013C79.0021 51.5425 79.0439 48.8533 79.1553 46.2338C76.5916 47.6829 73.9163 49.6754 71.1296 52.2113C74.0835 52.2949 76.717 52.9915 79.0299 54.3013ZM89.5675 38.0827C89.7069 37.7762 89.9298 37.609 90.2364 37.5811C90.5429 37.5532 90.7937 37.6508 90.9888 37.8737C91.2117 38.0966 91.2674 38.3753 91.156 38.7097C89.7347 42.2767 89.052 45.8994 89.1077 49.5778C89.1077 50.0516 88.8709 50.2884 88.3971 50.2884C87.8955 50.2884 87.589 50.0655 87.4775 49.6196C87.4497 49.536 87.4357 49.4524 87.4357 49.3688C87.38 45.6068 88.0906 41.8448 89.5675 38.0827ZM92.3682 33.2757C92.5632 33.7494 92.4239 34.1256 91.9502 34.4043L88.9823 36.1599C88.7873 36.2714 88.5783 36.2853 88.3553 36.2017C88.1324 36.0902 87.9791 35.937 87.8955 35.7419C87.7005 35.296 87.8398 34.9198 88.3135 34.6133L91.2814 32.8577C91.4764 32.7462 91.6854 32.7462 91.9084 32.8577C92.1313 32.9413 92.2846 33.0806 92.3682 33.2757ZM121.301 39.0441C121.524 38.7933 121.789 38.6958 122.095 38.7515C122.43 38.8073 122.652 38.9745 122.764 39.2531C122.903 39.5039 122.875 39.7687 122.68 40.0473C121.984 40.9112 121.162 41.803 120.214 42.7226C119.267 43.6422 118.152 44.5618 116.87 45.4814C115.588 46.3731 114.334 47.0837 113.108 47.6132C111.882 48.1148 110.628 48.3099 109.346 48.1984C108.064 48.0591 106.963 47.5017 106.044 46.5264C105.542 45.9691 104.859 45.147 103.996 44.0602C103.16 42.9734 102.546 42.207 102.156 41.7611C101.906 41.5103 101.669 41.3153 101.446 41.1759C101.223 41.0087 101.028 40.8973 100.861 40.8415C100.693 40.7858 100.512 40.7997 100.317 40.8833C100.122 40.9669 99.9548 41.0505 99.8155 41.1341C99.704 41.1899 99.5508 41.3292 99.3557 41.5521C99.1606 41.7751 99.0213 41.9562 98.9377 42.0956C98.8541 42.2349 98.7008 42.4718 98.4779 42.8062C98.255 43.1127 98.1017 43.3217 98.0181 43.4332C97.8788 43.6561 97.5026 44.3667 96.8895 45.565C96.3043 46.7354 95.6912 47.7386 95.0503 48.5746C94.4372 49.3828 93.852 49.8286 93.2946 49.9122C92.9602 49.968 92.6955 49.8704 92.5004 49.6196C92.3054 49.341 92.166 49.0484 92.0824 48.7418C91.971 48.4074 91.9292 48.0173 91.957 47.5714C91.9849 47.0977 92.0128 46.7354 92.0406 46.4846C92.0685 46.2338 92.1382 45.8297 92.2496 45.2724C92.3611 44.715 92.4308 44.3946 92.4586 44.311C92.6258 43.252 92.9463 41.7472 93.42 39.7965C93.8938 37.818 94.1724 36.6336 94.256 36.2435C94.3397 35.937 94.5347 35.728 94.8413 35.6165C95.1478 35.505 95.4265 35.5329 95.6773 35.7001C95.9281 35.8673 96.0117 36.1181 95.9281 36.4525C95.7887 37.0656 95.5519 38.0827 95.2175 39.5039C94.8831 40.8973 94.6323 41.9702 94.4651 42.7226C94.1306 44.3667 93.9216 45.5093 93.838 46.1502C93.838 46.2338 93.838 46.3592 93.838 46.5264C94.061 46.1084 94.3397 45.6625 94.6741 45.1888C95.0363 44.715 95.4125 44.2134 95.8027 43.684C96.1928 43.1545 96.4715 42.7504 96.6387 42.4718C96.7223 42.3603 96.8337 42.1931 96.9731 41.9702C97.1403 41.7472 97.2796 41.5521 97.3911 41.3849C97.5026 41.2177 97.628 41.0366 97.7673 40.8415C97.9345 40.6186 98.0878 40.4235 98.2271 40.2563C98.3664 40.0891 98.5197 39.9219 98.6869 39.7547C98.8541 39.5875 99.0213 39.4343 99.1885 39.2949C99.3836 39.1556 99.5647 39.0441 99.7319 38.9605C100.178 38.8491 100.568 38.7933 100.902 38.7933C101.237 38.7933 101.599 38.9187 101.989 39.1695C102.379 39.4203 102.714 39.6851 102.992 39.9637C103.299 40.2424 103.619 40.5907 103.954 41.0087C104.316 41.4267 104.609 41.8169 104.832 42.1792C105.082 42.5136 105.333 42.8758 105.584 43.266C105.863 43.6561 106.1 43.9626 106.295 44.1856C107.27 45.3839 108.148 46.0945 108.928 46.3174C109.708 46.5125 110.823 46.3453 112.272 45.8158C115.672 44.5618 118.681 42.3046 121.301 39.0441ZM137.819 38.9187C138.069 38.6679 138.334 38.6122 138.613 38.7515C138.892 38.863 139.059 39.072 139.114 39.3785C139.198 39.6572 139.128 39.9359 138.905 40.2145C133.165 46.0945 128.205 48.5328 124.024 47.5296C122.548 47.1952 121.433 46.5543 120.68 45.6068C119.928 44.6314 119.635 43.5586 119.803 42.3882C119.942 41.1899 120.485 40.0473 121.433 38.9605C122.185 38.1524 123.161 37.4975 124.359 36.9959C126.142 36.2714 127.02 36.7172 126.992 38.3335C126.992 38.3614 126.992 38.3892 126.992 38.4171C126.964 39.5039 126.31 40.535 125.028 41.5103C123.746 42.4857 122.589 42.8062 121.558 42.4718C121.447 43.7258 121.976 44.6593 123.147 45.2724C124.317 45.8855 125.599 46.0666 126.992 45.8158C128.971 45.4535 130.81 44.6872 132.51 43.5168C134.238 42.3185 136.007 40.7858 137.819 38.9187ZM124.568 38.6679C124.178 38.6958 123.746 38.9327 123.272 39.3785C122.826 39.8244 122.436 40.3121 122.102 40.8415C122.687 41.1202 123.397 40.7858 124.234 39.8383C124.791 39.1974 124.944 38.8073 124.693 38.6679C124.665 38.6679 124.624 38.6679 124.568 38.6679Z" fill="#292E36"/>
</svg>
